<svg width="85" height="63" viewBox="0 0 85 63" fill="none" xmlns="http://www.w3.org/2000/svg">
<path d="M0.419125 12V0.799999H6.49913C7.06446 0.799999 7.56046 0.927999 7.98713 1.184C8.41379 1.42933 8.74979 1.76533 8.99513 2.192C9.24046 2.61867 9.36313 3.104 9.36313 3.648C9.36313 4.02133 9.28313 4.384 9.12313 4.736C8.97379 5.07733 8.76046 5.376 8.48313 5.632C8.20579 5.888 7.87513 6.08 7.49113 6.208C7.92846 6.31467 8.30713 6.50667 8.62713 6.784C8.94713 7.06133 9.19779 7.392 9.37913 7.776C9.57113 8.16 9.66713 8.576 9.66713 9.024C9.66713 9.57867 9.53913 10.08 9.28313 10.528C9.02713 10.976 8.66979 11.3333 8.21113 11.6C7.76313 11.8667 7.22446 12 6.59513 12H0.419125ZM1.95513 10.64H6.24313C6.63779 10.64 6.97379 10.5547 7.25113 10.384C7.52846 10.2027 7.74179 9.97333 7.89113 9.696C8.05113 9.408 8.13113 9.104 8.13113 8.784C8.13113 8.45333 8.05113 8.15467 7.89113 7.888C7.73113 7.61067 7.50713 7.38667 7.21913 7.216C6.93113 7.03467 6.58979 6.944 6.19513 6.944H1.95513V10.64ZM1.95513 5.648H5.97113C6.34446 5.648 6.66979 5.568 6.94713 5.408C7.23513 5.23733 7.45379 5.01867 7.60313 4.752C7.76313 4.47467 7.84313 4.18667 7.84313 3.888C7.84313 3.57867 7.76846 3.296 7.61913 3.04C7.46979 2.77333 7.26179 2.56 6.99513 2.4C6.72846 2.24 6.41913 2.16 6.06713 2.16H1.95513V5.648ZM11.5118 12V3.84H12.9998V12H11.5118ZM12.2638 2.544C11.9971 2.544 11.7624 2.448 11.5598 2.256C11.3678 2.05333 11.2718 1.81867 11.2718 1.552C11.2718 1.28533 11.3678 1.056 11.5598 0.863999C11.7624 0.661333 11.9971 0.559999 12.2638 0.559999C12.5304 0.559999 12.7598 0.661333 12.9518 0.863999C13.1544 1.056 13.2558 1.28533 13.2558 1.552C13.2558 1.81867 13.1544 2.05333 12.9518 2.256C12.7598 2.448 12.5304 2.544 12.2638 2.544ZM19.4683 12C18.5723 12 17.7776 11.8347 17.0843 11.504C16.3909 11.1627 15.8469 10.688 15.4523 10.08C15.0683 9.46133 14.8763 8.74133 14.8763 7.92C14.8763 7.10933 15.0416 6.384 15.3723 5.744C15.7029 5.09333 16.1616 4.58133 16.7483 4.208C17.3349 3.83467 18.0176 3.648 18.7963 3.648C19.6389 3.648 20.3376 3.82933 20.8923 4.192C21.4576 4.55467 21.8789 5.04533 22.1562 5.664C22.4336 6.272 22.5723 6.95467 22.5723 7.712C22.5723 7.82933 22.5669 7.952 22.5563 8.08C22.5563 8.208 22.5456 8.32 22.5243 8.416H16.4443C16.4976 8.91733 16.6629 9.344 16.9403 9.696C17.2176 10.0373 17.5696 10.2987 17.9963 10.48C18.4336 10.6507 18.9136 10.736 19.4363 10.736H21.5643V12H19.4683ZM16.4283 7.376H21.0843C21.0843 7.17333 21.0629 6.96 21.0203 6.736C20.9776 6.50133 20.9029 6.27733 20.7963 6.064C20.6896 5.84 20.5456 5.64267 20.3643 5.472C20.1936 5.29067 19.9749 5.14667 19.7083 5.04C19.4523 4.93333 19.1483 4.88 18.7963 4.88C18.4229 4.88 18.0923 4.95467 17.8043 5.104C17.5269 5.24267 17.2869 5.43467 17.0843 5.68C16.8816 5.91467 16.7269 6.18133 16.6203 6.48C16.5136 6.77867 16.4496 7.07733 16.4283 7.376ZM24.4493 12V7.28C24.4493 6.55467 24.6093 5.92 24.9293 5.376C25.2599 4.832 25.7133 4.41067 26.2893 4.112C26.8653 3.80267 27.5213 3.648 28.2573 3.648C29.0039 3.648 29.6599 3.80267 30.2253 4.112C30.8013 4.41067 31.2493 4.832 31.5693 5.376C31.8999 5.92 32.0653 6.55467 32.0653 7.28V12H30.5933V7.296C30.5933 6.80533 30.4813 6.384 30.2573 6.032C30.0439 5.66933 29.7559 5.392 29.3933 5.2C29.0413 5.008 28.6626 4.912 28.2573 4.912C27.8519 4.912 27.4679 5.008 27.1053 5.2C26.7533 5.392 26.4653 5.66933 26.2413 6.032C26.0279 6.384 25.9213 6.80533 25.9213 7.296V12H24.4493ZM37.358 12.192C36.9953 12.192 36.6647 12.0907 36.366 11.888C36.078 11.6747 35.8647 11.376 35.726 10.992L33.07 3.84H34.686L37.054 10.448C37.0967 10.5547 37.1447 10.6293 37.198 10.672C37.2513 10.7147 37.31 10.736 37.374 10.736C37.4487 10.736 37.5073 10.7147 37.55 10.672C37.6033 10.6293 37.6513 10.5547 37.694 10.448L40.078 3.84H41.662L39.006 10.992C38.8567 11.376 38.638 11.6747 38.35 11.888C38.062 12.0907 37.7313 12.192 37.358 12.192ZM46.9839 12C46.0879 12 45.2932 11.8347 44.5999 11.504C43.9065 11.1627 43.3625 10.688 42.9679 10.08C42.5839 9.46133 42.3919 8.74133 42.3919 7.92C42.3919 7.10933 42.5572 6.384 42.8879 5.744C43.2185 5.09333 43.6772 4.58133 44.2639 4.208C44.8505 3.83467 45.5332 3.648 46.3119 3.648C47.1545 3.648 47.8532 3.82933 48.4079 4.192C48.9732 4.55467 49.3945 5.04533 49.6719 5.664C49.9492 6.272 50.0879 6.95467 50.0879 7.712C50.0879 7.82933 50.0825 7.952 50.0719 8.08C50.0719 8.208 50.0612 8.32 50.0399 8.416H43.9599C44.0132 8.91733 44.1785 9.344 44.4559 9.696C44.7332 10.0373 45.0852 10.2987 45.5119 10.48C45.9492 10.6507 46.4292 10.736 46.9519 10.736H49.0799V12H46.9839ZM43.9439 7.376H48.5999C48.5999 7.17333 48.5785 6.96 48.5359 6.736C48.4932 6.50133 48.4185 6.27733 48.3119 6.064C48.2052 5.84 48.0612 5.64267 47.8799 5.472C47.7092 5.29067 47.4905 5.14667 47.2239 5.04C46.9679 4.93333 46.6639 4.88 46.3119 4.88C45.9385 4.88 45.6079 4.95467 45.3199 5.104C45.0425 5.24267 44.8025 5.43467 44.5999 5.68C44.3972 5.91467 44.2425 6.18133 44.1359 6.48C44.0292 6.77867 43.9652 7.07733 43.9439 7.376ZM51.9649 12V7.28C51.9649 6.55467 52.1249 5.92 52.4449 5.376C52.7755 4.832 53.2289 4.41067 53.8049 4.112C54.3809 3.80267 55.0369 3.648 55.7729 3.648C56.5195 3.648 57.1755 3.80267 57.7409 4.112C58.3169 4.41067 58.7649 4.832 59.0849 5.376C59.4155 5.92 59.5809 6.55467 59.5809 7.28V12H58.1089V7.296C58.1089 6.80533 57.9969 6.384 57.7729 6.032C57.5595 5.66933 57.2715 5.392 56.9089 5.2C56.5569 5.008 56.1782 4.912 55.7729 4.912C55.3675 4.912 54.9835 5.008 54.6209 5.2C54.2689 5.392 53.9809 5.66933 53.7569 6.032C53.5435 6.384 53.4369 6.80533 53.4369 7.296V12H51.9649ZM61.918 12V3.84H63.406V12H61.918ZM62.67 2.544C62.4033 2.544 62.1687 2.448 61.966 2.256C61.774 2.05333 61.678 1.81867 61.678 1.552C61.678 1.28533 61.774 1.056 61.966 0.863999C62.1687 0.661333 62.4033 0.559999 62.67 0.559999C62.9367 0.559999 63.166 0.661333 63.358 0.863999C63.5607 1.056 63.662 1.28533 63.662 1.552C63.662 1.81867 63.5607 2.05333 63.358 2.256C63.166 2.448 62.9367 2.544 62.67 2.544ZM69.4905 12.192C68.8718 12.192 68.3065 12.096 67.7945 11.904C67.2825 11.7013 66.8398 11.408 66.4665 11.024C66.0932 10.64 65.7998 10.1813 65.5865 9.648C65.3838 9.104 65.2825 8.496 65.2825 7.824C65.2825 6.97067 65.4532 6.23467 65.7945 5.616C66.1465 4.98667 66.6212 4.50133 67.2185 4.16C67.8265 3.81867 68.5038 3.648 69.2505 3.648C69.6665 3.648 70.0612 3.71733 70.4345 3.856C70.8185 3.99467 71.1598 4.18667 71.4585 4.432C71.7572 4.67733 71.9918 4.96533 72.1625 5.296H72.1945V0.32H73.6665V7.872C73.6665 8.77867 73.4798 9.55733 73.1065 10.208C72.7438 10.848 72.2478 11.3387 71.6185 11.68C70.9998 12.0213 70.2905 12.192 69.4905 12.192ZM69.4905 10.928C69.9918 10.928 70.4452 10.8053 70.8505 10.56C71.2558 10.3147 71.5758 9.968 71.8105 9.52C72.0558 9.072 72.1785 8.544 72.1785 7.936C72.1785 7.31733 72.0558 6.784 71.8105 6.336C71.5758 5.87733 71.2558 5.52533 70.8505 5.28C70.4452 5.03467 69.9865 4.912 69.4745 4.912C68.9732 4.912 68.5145 5.04 68.0985 5.296C67.6932 5.552 67.3678 5.904 67.1225 6.352C66.8878 6.8 66.7705 7.32267 66.7705 7.92C66.7705 8.53867 66.8932 9.072 67.1385 9.52C67.3838 9.968 67.7092 10.3147 68.1145 10.56C68.5305 10.8053 68.9892 10.928 69.4905 10.928ZM79.7893 12.192C78.9573 12.192 78.2213 12.0053 77.5813 11.632C76.9413 11.248 76.4346 10.736 76.0613 10.096C75.6879 9.44533 75.5013 8.72 75.5013 7.92C75.5013 7.12 75.6879 6.4 76.0613 5.76C76.4346 5.10933 76.9413 4.59733 77.5813 4.224C78.2213 3.84 78.9573 3.648 79.7893 3.648C80.6213 3.648 81.3573 3.84 81.9973 4.224C82.6479 4.59733 83.1546 5.104 83.5173 5.744C83.8906 6.384 84.0773 7.10933 84.0773 7.92C84.0773 8.72 83.8906 9.44533 83.5173 10.096C83.1546 10.736 82.6479 11.248 81.9973 11.632C81.3573 12.0053 80.6213 12.192 79.7893 12.192ZM79.7893 10.928C80.3546 10.928 80.8453 10.7947 81.2613 10.528C81.6773 10.2613 82.0026 9.904 82.2373 9.456C82.4719 8.99733 82.5893 8.48533 82.5893 7.92C82.5893 7.35467 82.4719 6.848 82.2373 6.4C82.0026 5.94133 81.6773 5.57867 81.2613 5.312C80.8453 5.04533 80.3546 4.912 79.7893 4.912C79.2346 4.912 78.7439 5.04533 78.3173 5.312C77.9013 5.57867 77.5759 5.94133 77.3413 6.4C77.1066 6.848 76.9893 7.35467 76.9893 7.92C76.9893 8.48533 77.1066 8.99733 77.3413 9.456C77.5759 9.904 77.9013 10.2613 78.3173 10.528C78.7439 10.7947 79.2346 10.928 79.7893 10.928ZM27.4819 37.192C26.6925 37.192 26.0099 37.0053 25.4339 36.632C24.8579 36.248 24.4152 35.7307 24.1059 35.08C23.7965 34.4293 23.6419 33.7093 23.6419 32.92C23.6419 32.12 23.8125 31.4 24.1539 30.76C24.4952 30.1093 24.9859 29.5973 25.6259 29.224C26.2659 28.84 27.0339 28.648 27.9299 28.648C28.7939 28.648 29.5352 28.8347 30.1539 29.208C30.7725 29.5813 31.2472 30.088 31.5779 30.728C31.9192 31.368 32.0899 32.0827 32.0899 32.872V37H30.6019V35.336H30.5699C30.4099 35.6453 30.1912 35.944 29.9139 36.232C29.6472 36.5093 29.3112 36.7387 28.9059 36.92C28.5005 37.1013 28.0259 37.192 27.4819 37.192ZM27.8659 35.928C28.3992 35.928 28.8685 35.8 29.2739 35.544C29.6899 35.2773 30.0099 34.9147 30.2339 34.456C30.4685 33.9867 30.5859 33.464 30.5859 32.888C30.5859 32.3227 30.4739 31.816 30.2499 31.368C30.0365 30.92 29.7272 30.568 29.3219 30.312C28.9165 30.0453 28.4419 29.912 27.8979 29.912C27.3219 29.912 26.8259 30.0453 26.4099 30.312C26.0045 30.5787 25.6899 30.9413 25.4659 31.4C25.2525 31.848 25.1459 32.36 25.1459 32.936C25.1459 33.4907 25.2525 33.9973 25.4659 34.456C25.6792 34.904 25.9885 35.2613 26.3939 35.528C26.7992 35.7947 27.2899 35.928 27.8659 35.928ZM38.668 37V32.088C38.668 31.4587 38.812 30.8827 39.1 30.36C39.388 29.8373 39.804 29.4213 40.348 29.112C40.892 28.8027 41.548 28.648 42.316 28.648C42.6893 28.648 43.0627 28.7013 43.436 28.808C43.8093 28.904 44.156 29.0747 44.476 29.32C44.796 29.5547 45.052 29.8747 45.244 30.28H45.26C45.4733 29.8747 45.74 29.5547 46.06 29.32C46.38 29.0747 46.7267 28.904 47.1 28.808C47.4733 28.7013 47.852 28.648 48.236 28.648C48.9933 28.648 49.644 28.8027 50.188 29.112C50.732 29.4213 51.148 29.8373 51.436 30.36C51.724 30.8827 51.868 31.4587 51.868 32.088V37H50.396V32.088C50.396 31.6827 50.3 31.3147 50.108 30.984C49.916 30.6533 49.6547 30.392 49.324 30.2C49.004 30.008 48.636 29.912 48.22 29.912C47.8147 29.912 47.4413 30.0133 47.1 30.216C46.7587 30.408 46.4867 30.6693 46.284 31C46.092 31.32 45.996 31.6827 45.996 32.088V37H44.524V32.088C44.524 31.6827 44.4227 31.32 44.22 31C44.028 30.6693 43.7613 30.408 43.42 30.216C43.0893 30.0133 42.716 29.912 42.3 29.912C41.8947 29.912 41.5267 30.008 41.196 30.2C40.876 30.392 40.62 30.6533 40.428 30.984C40.236 31.3147 40.14 31.6827 40.14 32.088V37H38.668ZM54.1993 37V28.84H55.6873V37H54.1993ZM54.9513 27.544C54.6846 27.544 54.4499 27.448 54.2473 27.256C54.0553 27.0533 53.9593 26.8187 53.9593 26.552C53.9593 26.2853 54.0553 26.056 54.2473 25.864C54.4499 25.6613 54.6846 25.56 54.9513 25.56C55.2179 25.56 55.4473 25.6613 55.6393 25.864C55.8419 26.056 55.9433 26.2853 55.9433 26.552C55.9433 26.8187 55.8419 27.0533 55.6393 27.256C55.4473 27.448 55.2179 27.544 54.9513 27.544ZM6.44144 62V60.64H11.2894C11.6628 60.64 11.9828 60.5547 12.2494 60.384C12.5161 60.2027 12.7241 59.9733 12.8734 59.696C13.0228 59.4187 13.0974 59.1253 13.0974 58.816C13.0974 58.496 13.0228 58.2027 12.8734 57.936C12.7348 57.6587 12.5321 57.44 12.2654 57.28C12.0094 57.1093 11.6948 57.024 11.3214 57.024H9.20944C8.5801 57.024 8.02544 56.896 7.54544 56.64C7.06544 56.3733 6.68677 56.0107 6.40944 55.552C6.14277 55.0827 6.00944 54.5547 6.00944 53.968C6.00944 53.3707 6.13744 52.832 6.39344 52.352C6.6601 51.872 7.0281 51.4933 7.49744 51.216C7.97744 50.9387 8.52677 50.8 9.14544 50.8H13.8974V52.16H9.28944C8.93744 52.16 8.6281 52.2453 8.36144 52.416C8.09477 52.576 7.8921 52.7893 7.75344 53.056C7.61477 53.312 7.54544 53.5893 7.54544 53.888C7.54544 54.176 7.60944 54.4533 7.73744 54.72C7.8761 54.976 8.07344 55.184 8.32944 55.344C8.5961 55.504 8.9001 55.584 9.24144 55.584H11.4014C12.0734 55.584 12.6494 55.7173 13.1294 55.984C13.6094 56.2507 13.9774 56.6133 14.2334 57.072C14.4894 57.5307 14.6174 58.0533 14.6174 58.64C14.6174 59.2907 14.4841 59.872 14.2174 60.384C13.9614 60.8853 13.5934 61.28 13.1134 61.568C12.6334 61.856 12.0841 62 11.4654 62H6.44144ZM16.4727 62V53.84H17.9607V62H16.4727ZM17.2247 52.544C16.958 52.544 16.7234 52.448 16.5207 52.256C16.3287 52.0533 16.2327 51.8187 16.2327 51.552C16.2327 51.2853 16.3287 51.056 16.5207 50.864C16.7234 50.6613 16.958 50.56 17.2247 50.56C17.4914 50.56 17.7207 50.6613 17.9127 50.864C18.1154 51.056 18.2167 51.2853 18.2167 51.552C18.2167 51.8187 18.1154 52.0533 17.9127 52.256C17.7207 52.448 17.4914 52.544 17.2247 52.544ZM23.0692 62C22.3439 62 21.7732 61.792 21.3572 61.376C20.9519 60.96 20.7492 60.3947 20.7492 59.68V51.792H22.2212V59.584C22.2212 59.936 22.3172 60.2187 22.5092 60.432C22.7119 60.6347 22.9892 60.736 23.3412 60.736H24.9892V62H23.0692ZM19.3412 55.104V53.84H25.0212V55.104H19.3412ZM26.8008 62V53.84H28.2888V62H26.8008ZM27.5528 52.544C27.2861 52.544 27.0515 52.448 26.8488 52.256C26.6568 52.0533 26.5608 51.8187 26.5608 51.552C26.5608 51.2853 26.6568 51.056 26.8488 50.864C27.0515 50.6613 27.2861 50.56 27.5528 50.56C27.8195 50.56 28.0488 50.6613 28.2408 50.864C28.4435 51.056 28.5448 51.2853 28.5448 51.552C28.5448 51.8187 28.4435 52.0533 28.2408 52.256C28.0488 52.448 27.8195 52.544 27.5528 52.544ZM34.4533 62.192C33.6213 62.192 32.8853 62.0053 32.2453 61.632C31.6053 61.248 31.0986 60.736 30.7253 60.096C30.352 59.4453 30.1653 58.72 30.1653 57.92C30.1653 57.12 30.352 56.4 30.7253 55.76C31.0986 55.1093 31.6053 54.5973 32.2453 54.224C32.8853 53.84 33.6213 53.648 34.4533 53.648C35.2853 53.648 36.0213 53.84 36.6613 54.224C37.312 54.5973 37.8186 55.104 38.1813 55.744C38.5546 56.384 38.7413 57.1093 38.7413 57.92C38.7413 58.72 38.5546 59.4453 38.1813 60.096C37.8186 60.736 37.312 61.248 36.6613 61.632C36.0213 62.0053 35.2853 62.192 34.4533 62.192ZM34.4533 60.928C35.0186 60.928 35.5093 60.7947 35.9253 60.528C36.3413 60.2613 36.6666 59.904 36.9013 59.456C37.136 58.9973 37.2533 58.4853 37.2533 57.92C37.2533 57.3547 37.136 56.848 36.9013 56.4C36.6666 55.9413 36.3413 55.5787 35.9253 55.312C35.5093 55.0453 35.0186 54.912 34.4533 54.912C33.8986 54.912 33.408 55.0453 32.9813 55.312C32.5653 55.5787 32.24 55.9413 32.0053 56.4C31.7706 56.848 31.6533 57.3547 31.6533 57.92C31.6533 58.4853 31.7706 58.9973 32.0053 59.456C32.24 59.904 32.5653 60.2613 32.9813 60.528C33.408 60.7947 33.8986 60.928 34.4533 60.928ZM47.5993 62.192C47.0873 62.192 46.6233 62.096 46.2073 61.904C45.802 61.7013 45.4766 61.392 45.2313 60.976C44.986 60.5493 44.8633 60.0053 44.8633 59.344V53.84H46.3353V59.6C46.3353 59.888 46.394 60.1333 46.5113 60.336C46.6286 60.5387 46.7833 60.688 46.9753 60.784C47.1673 60.88 47.37 60.928 47.5833 60.928C47.7966 60.928 47.9993 60.88 48.1913 60.784C48.3833 60.6773 48.538 60.528 48.6553 60.336C48.7833 60.1333 48.8473 59.888 48.8473 59.6V56.432C48.8473 55.8027 48.9646 55.2853 49.1993 54.88C49.434 54.464 49.754 54.1547 50.1593 53.952C50.5646 53.7493 51.0233 53.648 51.5353 53.648C52.0473 53.648 52.506 53.7493 52.9113 53.952C53.3166 54.1547 53.6366 54.464 53.8713 54.88C54.106 55.2853 54.2233 55.8027 54.2233 56.432V59.6C54.2233 59.888 54.282 60.1333 54.3993 60.336C54.5166 60.528 54.6713 60.6773 54.8633 60.784C55.0553 60.88 55.2633 60.928 55.4873 60.928C55.7113 60.928 55.914 60.88 56.0953 60.784C56.2766 60.6773 56.426 60.528 56.5433 60.336C56.6606 60.1333 56.7193 59.888 56.7193 59.6V53.84H58.2073V59.344C58.2073 60.0053 58.0846 60.5493 57.8393 60.976C57.594 61.392 57.2633 61.7013 56.8473 61.904C56.442 62.096 55.9886 62.192 55.4873 62.192C54.9966 62.192 54.5433 62.096 54.1273 61.904C53.7113 61.7013 53.3753 61.392 53.1193 60.976C52.874 60.5493 52.7513 60.0053 52.7513 59.344V56.208C52.7513 55.9093 52.6926 55.664 52.5753 55.472C52.458 55.28 52.3086 55.1413 52.1273 55.056C51.946 54.96 51.7486 54.912 51.5353 54.912C51.322 54.912 51.1193 54.96 50.9273 55.056C50.746 55.1413 50.5966 55.28 50.4793 55.472C50.3726 55.664 50.3193 55.9093 50.3193 56.208V59.344C50.3193 60.0053 50.1913 60.5493 49.9353 60.976C49.69 61.392 49.3593 61.7013 48.9433 61.904C48.538 62.096 48.09 62.192 47.5993 62.192ZM64.6948 62C63.7988 62 63.0041 61.8347 62.3108 61.504C61.6175 61.1627 61.0735 60.688 60.6788 60.08C60.2948 59.4613 60.1028 58.7413 60.1028 57.92C60.1028 57.1093 60.2681 56.384 60.5988 55.744C60.9295 55.0933 61.3881 54.5813 61.9748 54.208C62.5615 53.8347 63.2441 53.648 64.0228 53.648C64.8655 53.648 65.5641 53.8293 66.1188 54.192C66.6841 54.5547 67.1055 55.0453 67.3828 55.664C67.6601 56.272 67.7988 56.9547 67.7988 57.712C67.7988 57.8293 67.7935 57.952 67.7828 58.08C67.7828 58.208 67.7721 58.32 67.7508 58.416H61.6708C61.7241 58.9173 61.8895 59.344 62.1668 59.696C62.4441 60.0373 62.7961 60.2987 63.2228 60.48C63.6601 60.6507 64.1401 60.736 64.6628 60.736H66.7908V62H64.6948ZM61.6548 57.376H66.3108C66.3108 57.1733 66.2895 56.96 66.2468 56.736C66.2041 56.5013 66.1295 56.2773 66.0228 56.064C65.9161 55.84 65.7721 55.6427 65.5908 55.472C65.4201 55.2907 65.2015 55.1467 64.9348 55.04C64.6788 54.9333 64.3748 54.88 64.0228 54.88C63.6495 54.88 63.3188 54.9547 63.0308 55.104C62.7535 55.2427 62.5135 55.4347 62.3108 55.68C62.1081 55.9147 61.9535 56.1813 61.8468 56.48C61.7401 56.7787 61.6761 57.0773 61.6548 57.376ZM73.8038 62.192C73.0145 62.192 72.3051 62.0213 71.6758 61.68C71.0465 61.3387 70.5451 60.848 70.1718 60.208C69.8091 59.5573 69.6278 58.7787 69.6278 57.872V50.32H71.0998V55.296H71.1318C71.3131 54.9653 71.5478 54.6773 71.8358 54.432C72.1345 54.1867 72.4705 53.9947 72.8438 53.856C73.2278 53.7173 73.6278 53.648 74.0438 53.648C74.8011 53.648 75.4785 53.8187 76.0758 54.16C76.6731 54.5013 77.1425 54.9867 77.4838 55.616C77.8358 56.2347 78.0118 56.9707 78.0118 57.824C78.0118 58.496 77.9051 59.104 77.6918 59.648C77.4891 60.1813 77.2011 60.64 76.8278 61.024C76.4545 61.408 76.0118 61.7013 75.4998 61.904C74.9878 62.096 74.4225 62.192 73.8038 62.192ZM73.8038 60.928C74.3051 60.928 74.7585 60.8053 75.1638 60.56C75.5798 60.3147 75.9105 59.968 76.1558 59.52C76.4011 59.072 76.5238 58.5387 76.5238 57.92C76.5238 57.3227 76.4011 56.8 76.1558 56.352C75.9211 55.904 75.6011 55.552 75.1958 55.296C74.7905 55.04 74.3318 54.912 73.8198 54.912C73.3185 54.912 72.8598 55.0347 72.4438 55.28C72.0385 55.5253 71.7131 55.8773 71.4678 56.336C71.2331 56.784 71.1158 57.3173 71.1158 57.936C71.1158 58.544 71.2331 59.072 71.4678 59.52C71.7131 59.968 72.0385 60.3147 72.4438 60.56C72.8598 60.8053 73.3131 60.928 73.8038 60.928Z" fill="white"/>
</svg>
