<svg width="974" height="588" viewBox="0 0 974 588" fill="none" xmlns="http://www.w3.org/2000/svg">
<g clip-path="url(#clip0_54_62)">
<path d="M561.877 471.613C559.605 471.613 557.383 472.287 555.494 473.549C553.604 474.812 552.132 476.606 551.262 478.706C550.392 480.805 550.165 483.116 550.608 485.344C551.052 487.573 552.146 489.621 553.753 491.227C555.36 492.834 557.407 493.929 559.636 494.372C561.865 494.815 564.175 494.588 566.274 493.718C568.374 492.848 570.169 491.376 571.431 489.486C572.694 487.597 573.367 485.375 573.367 483.103C573.367 480.055 572.157 477.133 570.002 474.978C567.847 472.823 564.925 471.613 561.877 471.613ZM561.877 490.174C560.479 490.174 559.112 489.759 557.949 488.982C556.786 488.205 555.88 487.101 555.345 485.809C554.809 484.517 554.669 483.095 554.942 481.723C555.215 480.352 555.889 479.092 556.878 478.103C557.866 477.114 559.126 476.44 560.498 476.168C561.87 475.895 563.291 476.035 564.583 476.57C565.875 477.105 566.98 478.012 567.757 479.174C568.534 480.337 568.948 481.704 568.948 483.103C568.948 484.978 568.203 486.777 566.877 488.103C565.551 489.429 563.753 490.174 561.877 490.174Z" fill="#E4E4E4"/>
<path d="M517.684 462.774H561.877V506.513C561.877 508.04 561.271 509.504 560.191 510.584C559.112 511.663 557.647 512.27 556.12 512.27H523.441C521.914 512.27 520.45 511.663 519.37 510.584C518.291 509.504 517.684 508.04 517.684 506.513V462.774Z" fill="#E4E4E4"/>
<path d="M665.133 513.271H0.896286C0.649952 513.244 0.422266 513.127 0.256866 512.942C0.0914674 512.758 0 512.519 0 512.271C0 512.023 0.0914674 511.784 0.256866 511.6C0.422266 511.415 0.649952 511.298 0.896286 511.271H665.133C665.38 511.298 665.607 511.415 665.773 511.6C665.938 511.784 666.03 512.023 666.03 512.271C666.03 512.519 665.938 512.758 665.773 512.942C665.607 513.127 665.38 513.244 665.133 513.271Z" fill="#CACACA"/>
<path d="M89.41 494.381L85.302 514.694L161.695 540.208L167.759 510.228L89.41 494.381Z" fill="#FFB6B6"/>
<path d="M59.2898 549.533L71.9412 486.985L95.3226 491.714L87.5288 530.247L87.5287 530.247L87.5285 530.249C87.5281 530.25 87.5278 530.252 87.5274 530.254C86.2371 536.623 82.4706 542.219 77.0558 545.811C71.8216 549.284 65.4614 550.61 59.2898 549.533Z" fill="white" stroke="white" stroke-width="3"/>
<path d="M175.979 214.584C204.627 214.584 227.85 191.36 227.85 162.713C227.85 134.065 204.627 110.842 175.979 110.842C147.332 110.842 124.108 134.065 124.108 162.713C124.108 191.36 147.332 214.584 175.979 214.584Z" fill="#FEB8B8"/>
<path d="M227.529 167.342C223.764 161.777 219.722 156.975 215.733 152.236L215.708 152.205C210.939 146.541 206.246 140.962 202.029 134.163L199.32 135.395C199.183 134.949 199.321 134.57 199.445 134.374C199.546 134.213 199.642 134.157 199.605 134.183C199.537 134.231 199.326 134.348 198.887 134.513C198.162 134.787 197.084 135.098 195.689 135.434L189.564 130.331L186.46 127.744L187.125 131.73L188.002 136.99C176.985 138.952 160.892 141.031 149.351 142.09L148.436 134.769L147.749 129.276L145.569 134.364L141.994 142.706C139.865 142.909 137.719 142.866 135.598 142.577L134.357 142.407L133.969 143.599C132.369 148.514 130.597 153.282 128.812 158.084L128.811 158.087C127.394 161.901 125.968 165.736 124.628 169.655C115.18 153.182 117.445 131.461 128.478 115.548C133.128 109.055 139.071 103.595 145.935 99.5126C152.314 95.7182 159.359 93.19 166.684 92.0601V94.8949V98.275L169.191 96.0072L174.275 91.4064C177.017 91.3369 179.759 91.4777 182.478 91.8274V96.5579V99.5094L184.862 97.7696L190.628 93.5624C204.156 97.7338 215.718 106.681 223.15 118.749C233.044 134.825 230.57 149.484 227.529 167.342Z" fill="white" stroke="white" stroke-width="3"/>
<path d="M192.856 502.146C266.62 502.146 326.416 485.42 326.416 464.787C326.416 444.154 266.62 427.428 192.856 427.428C119.093 427.428 59.2964 444.154 59.2964 464.787C59.2964 485.42 119.093 502.146 192.856 502.146Z" fill="#CACACA"/>
<path d="M258.747 251.565L258.803 251.592L258.862 251.615C260.265 252.153 261.735 252.496 263.231 252.636C269.517 253.788 274.399 259.28 277.595 265.454C282.423 274.812 284.244 285.429 286.023 296.126L286.001 296.291C285.967 296.547 285.917 296.926 285.851 297.422C285.721 298.413 285.53 299.867 285.288 301.722C284.805 305.432 284.12 310.743 283.309 317.152C281.689 329.968 279.57 347.173 277.578 364.726C275.585 382.275 273.717 400.186 272.598 414.408C272.039 421.516 271.666 427.723 271.559 432.51C271.506 434.902 271.519 436.961 271.612 438.612C271.649 439.263 271.699 439.876 271.767 440.436L87.5715 435.159C87.0883 432.324 87.0029 427.565 87.3214 422.687C87.5009 419.939 87.8044 417.218 88.2161 414.874C88.6338 412.497 89.1435 410.626 89.6886 409.503L89.6929 409.495L89.697 409.486C90.2103 408.393 90.8237 407.335 91.4798 406.217L91.5988 406.014C92.2092 404.975 92.8527 403.88 93.4188 402.734C97.7382 394.069 97.1489 383.959 96.6153 374.805C96.601 374.56 96.5868 374.316 96.5727 374.072C96.0244 364.596 95.9274 354.976 100.613 347.4C101.357 346.408 101.871 345.262 102.116 344.046L102.146 343.895L102.145 343.74C102.138 342.53 101.83 341.341 101.25 340.279C96.1608 328.945 91.2864 317.601 86.4066 306.244L86.396 306.219C81.5853 295.023 76.7693 283.815 71.7449 272.611C72.6426 269.525 73.4743 266.682 75.1087 264.382C76.8368 261.952 79.4997 260.23 82.1454 260.342L82.1521 260.342C82.3765 260.35 82.5664 260.311 82.6534 260.291C82.7638 260.266 82.8713 260.234 82.9664 260.203C83.1575 260.141 83.3777 260.057 83.6122 259.96C84.0854 259.766 84.7038 259.488 85.4346 259.144C86.9008 258.455 88.8865 257.473 91.2054 256.3C95.8466 253.952 101.866 250.82 107.828 247.692C112.735 245.118 117.607 242.545 121.647 240.412C122.517 239.952 123.348 239.513 124.132 239.099C126.347 237.93 128.189 236.959 129.481 236.284C129.991 236.017 130.413 235.798 130.737 235.632L130.802 235.675L131.607 235.2C138.497 231.143 145.678 227.603 153.09 224.609C190.438 227.513 204.973 226.151 210.344 225.647C211.424 225.546 212.134 225.48 212.584 225.489L212.6 225.49H212.617C213.056 225.49 213.762 225.664 214.748 226.087C215.7 226.496 216.78 227.078 217.922 227.757C219.345 228.602 220.746 229.52 222.074 230.391C222.93 230.952 223.757 231.494 224.54 231.984C226.767 233.377 234.801 238.023 242.498 242.424C250.168 246.809 257.657 251.04 258.747 251.565Z" fill="#CACACA" stroke="white" stroke-width="3"/>
<path d="M99.8377 397.465L100.014 395.976C99.8377 397.465 99.8379 397.465 99.8384 397.466L99.8404 397.466L99.8488 397.467L99.8823 397.471L100.015 397.487L100.534 397.549C100.989 397.603 101.658 397.684 102.51 397.787C104.214 397.994 106.654 398.294 109.593 398.662C115.471 399.399 123.347 400.414 131.338 401.522C139.332 402.631 147.427 403.831 153.752 404.942C156.916 405.498 159.616 406.027 161.63 406.507C162.639 406.748 163.452 406.97 164.054 407.171C164.723 407.393 164.944 407.53 164.944 407.53C166.54 408.815 167.723 410.778 168.181 412.822C168.636 414.851 168.349 416.793 167.269 418.218C167.263 418.218 167.15 418.313 166.8 418.465C166.393 418.641 165.814 418.832 165.052 419.028C163.534 419.42 161.452 419.797 158.919 420.156C153.864 420.873 147.175 421.495 139.97 422.035C129.114 422.848 117.164 423.469 107.987 423.946C104.983 424.103 102.276 424.243 100.002 424.37L100.001 424.37C87.9759 425.049 75.9305 425.139 64.3158 422.681L64.1435 422.645L63.9674 422.649C63.3754 422.664 62.8015 422.444 62.3719 422.036C61.9423 421.628 61.6919 421.067 61.6758 420.475L61.6729 420.368L61.6548 420.263C60.4663 413.327 59.5099 406.39 58.8701 399.402L58.8697 399.398C58.5425 395.921 58.3012 392.44 58.0579 388.931L58.0317 388.554L58.0317 388.554L55.3477 350.008L55.3456 349.977L55.3423 349.947C55.058 347.371 55.0921 344.769 55.4439 342.202C55.7766 340.475 56.455 338.156 57.4745 336.097C58.527 333.971 59.8034 332.404 61.18 331.795C63.2238 330.922 66.3478 330.709 69.8354 330.748C71.3023 330.764 72.7789 330.822 74.2123 330.879C74.4527 330.889 74.6919 330.898 74.9296 330.907C76.5651 330.971 78.1442 331.023 79.4975 330.984C86.5483 330.818 93.6624 331.59 99.0987 335.384C105.675 339.983 108.833 348.553 108.779 356.916C108.725 365.291 105.911 373.426 102.79 381.53L102.787 381.536C102.654 381.886 102.52 382.237 102.385 382.59C100.784 386.778 99.1113 391.151 98.5261 395.788L98.3369 397.288L99.8377 397.465Z" fill="#FBBEBE" stroke="white" stroke-width="3"/>
<path d="M287.747 430.586L288.087 430.614L288.406 430.493C291.101 429.465 294.14 429.812 297.541 430.269C308.308 431.74 318.991 433.225 328.719 437.418L328.722 437.419C333.283 439.372 337.475 441.92 340.413 445.576C343.038 448.897 344.603 453.002 346.163 457.295L346.163 457.297L349.75 467.123L349.761 467.152L349.773 467.181C351.245 470.745 352.262 474.48 352.798 478.299C353.827 489.27 346.291 499.867 336.477 505.794C326.967 511.537 315.799 513.727 304.529 515.936C304.132 516.014 303.736 516.091 303.339 516.169C291.719 518.452 280.057 520.977 268.49 523.652L268.471 523.656L268.452 523.661C263.126 525.043 257.723 526.107 252.27 526.847C247.904 527.34 243.501 527.393 239.019 527.448C237.247 527.47 235.462 527.491 233.662 527.541C227.379 527.712 221.021 528.223 214.92 530.347L214.918 530.347C213.142 530.969 211.364 531.709 209.627 532.431C209.034 532.678 208.445 532.923 207.862 533.16C205.547 534.104 203.285 534.955 200.989 535.492C197.829 536.156 194.634 536.642 191.42 536.948L191.406 536.949L191.392 536.951L169.154 539.491L169.14 539.493L169.126 539.494C164.664 540.091 160.173 540.436 155.673 540.527C146.175 540.525 136.798 538.275 127.344 535.97L127.296 535.958L127.248 535.95C126.473 535.814 125.733 535.52 125.076 535.086C124.659 534.741 124.348 534.233 124.117 533.524C123.873 532.779 123.75 531.921 123.643 530.981L123.643 530.981C122.692 522.646 121.86 514.302 121.147 505.949C120.916 503.146 120.841 500.741 121.999 498.951C123.463 496.764 126.436 495.937 129.823 495.385L129.824 495.385C143.831 493.093 158.021 492.108 172.211 492.443L172.853 492.458L173.307 492.004C175.733 489.578 179.006 488.298 182.757 487.258C183.812 486.966 184.92 486.69 186.051 486.408C188.809 485.722 191.705 485.002 194.304 483.922L194.329 483.912L194.354 483.9C197.022 482.675 199.604 481.272 202.083 479.7C214.587 472.409 228.557 467.994 242.98 466.775C245.95 466.682 248.901 466.259 251.778 465.515L251.813 465.506L251.847 465.496C253.337 465.033 254.766 464.38 256.119 463.711C256.65 463.448 257.157 463.19 257.653 462.937C258.465 462.523 259.249 462.123 260.063 461.744C262.645 460.541 264.939 459.842 267.273 460.313L268.54 460.568L268.98 459.353C269.143 458.903 269.295 458.421 269.438 457.964C269.461 457.893 269.483 457.822 269.505 457.752C269.674 457.218 269.838 456.713 270.024 456.236C270.405 455.258 270.815 454.57 271.322 454.154L271.332 454.146L271.343 454.137C271.623 453.898 271.935 453.692 272.34 453.426C272.387 453.395 272.435 453.363 272.484 453.331C272.924 453.041 273.469 452.673 273.955 452.194L273.961 452.188L273.967 452.182C276.045 450.08 276.097 446.957 275.858 444.702C275.799 444.149 275.735 443.671 275.674 443.214C275.593 442.616 275.518 442.055 275.467 441.413C275.385 440.391 275.406 439.486 275.625 438.649C275.823 437.976 276.113 437.333 276.486 436.739L276.501 436.715L276.515 436.691C277.802 434.464 279.376 432.852 281.204 431.841C283.027 430.834 285.191 430.374 287.747 430.586ZM191.562 538.441L169.324 540.981C164.802 541.586 160.25 541.935 155.688 542.027C145.975 542.027 136.42 539.727 126.988 537.427L191.562 538.441Z" fill="#CACACA" stroke="white" stroke-width="3"/>
<path d="M69.6105 273.414C68.7008 274.367 67.9954 275.495 67.5375 276.73C59.9879 293.745 55.5286 311.968 54.3685 330.546C54.3889 331.452 54.1801 332.348 53.7615 333.152C53.3487 333.687 52.8892 334.184 52.3885 334.637C51.9519 335.155 51.6216 335.753 51.4163 336.398C51.211 337.044 51.1348 337.723 51.1921 338.398C51.2493 339.072 51.4389 339.729 51.75 340.33C52.0611 340.932 52.4876 341.466 53.0051 341.903C53.09 341.974 53.1771 342.043 53.2665 342.109C54.8075 339.209 58.4965 338.261 61.7755 338.009C77.4755 336.767 92.8115 344.071 108.558 343.52C107.447 339.681 105.849 335.992 104.943 332.107C100.936 314.856 110.93 296.074 104.803 279.458C103.579 276.133 101.534 272.864 98.3125 271.407C96.9783 270.869 95.5822 270.499 94.1565 270.307C90.1775 269.588 82.2565 266.515 78.4095 267.748C76.9895 268.206 76.4295 269.541 75.2525 270.348C73.4645 271.49 71.0925 271.91 69.6105 273.414Z" fill="#CACACA"/>
<path d="M248.219 395.976L248.396 397.465L249.897 397.288L249.707 395.788C249.122 391.151 247.45 386.777 245.849 382.59C245.714 382.237 245.579 381.886 245.446 381.536L245.444 381.53C242.323 373.426 239.508 365.291 239.454 356.916C239.4 348.553 242.558 339.984 249.134 335.385C254.57 331.59 261.685 330.818 268.736 330.984C270.089 331.023 271.668 330.971 273.304 330.907C273.542 330.898 273.781 330.889 274.021 330.879C275.455 330.822 276.931 330.764 278.398 330.748C281.886 330.709 285.01 330.922 287.053 331.795C288.43 332.404 289.707 333.971 290.759 336.097C291.778 338.156 292.457 340.475 292.79 342.202C293.141 344.769 293.176 347.371 292.891 349.947L292.888 349.977L292.886 350.008L290.202 388.554L290.202 388.554L290.176 388.929C289.932 392.439 289.691 395.92 289.364 399.398L289.363 399.402C288.724 406.39 287.767 413.327 286.579 420.263L286.561 420.368L286.558 420.475C286.542 421.067 286.291 421.628 285.862 422.036C285.432 422.444 284.858 422.664 284.266 422.649L284.09 422.645L283.918 422.681C282.585 422.963 280.013 423.177 276.413 423.307C272.851 423.435 268.388 423.479 263.34 423.45C253.244 423.391 240.849 423.041 228.728 422.495C216.606 421.95 204.775 421.21 195.806 420.375C191.317 419.957 187.571 419.518 184.871 419.071C183.517 418.847 182.463 418.628 181.724 418.418C181.353 418.313 181.099 418.22 180.942 418.148C180.925 418.14 180.91 418.133 180.897 418.127C179.873 416.712 179.607 414.808 180.052 412.822C180.511 410.778 181.694 408.815 183.289 407.53C183.289 407.53 183.51 407.393 184.179 407.171C184.782 406.97 185.594 406.748 186.603 406.507C188.617 406.027 191.317 405.498 194.482 404.942C200.806 403.831 208.902 402.631 216.896 401.522C224.887 400.414 232.762 399.399 238.641 398.662C241.58 398.294 244.019 397.994 245.723 397.787C246.576 397.684 247.244 397.603 247.699 397.549L248.218 397.487L248.351 397.471L248.385 397.467L248.393 397.466L248.395 397.466C248.396 397.465 248.396 397.465 248.219 395.976ZM180.827 418.089C180.828 418.089 180.83 418.09 180.835 418.094C180.83 418.09 180.827 418.089 180.827 418.089Z" fill="#FBBEBE" stroke="white" stroke-width="3"/>
<path d="M272.981 270.348C271.804 269.541 271.244 268.206 269.824 267.748C265.977 266.515 258.056 269.588 254.077 270.307C252.652 270.499 251.255 270.869 249.921 271.407C246.699 272.864 244.654 276.133 243.43 279.458C237.303 296.074 247.297 314.856 243.29 332.107C242.384 335.992 240.786 339.681 239.675 343.52C255.422 344.071 270.758 336.767 286.458 338.009C289.737 338.261 293.426 339.209 294.967 342.109C295.057 342.043 295.144 341.974 295.229 341.903C295.746 341.466 296.173 340.932 296.484 340.33C296.795 339.729 296.984 339.072 297.042 338.398C297.099 337.723 297.023 337.044 296.818 336.398C296.612 335.753 296.282 335.155 295.845 334.637C295.345 334.184 294.885 333.687 294.472 333.152C294.054 332.348 293.845 331.452 293.865 330.546C292.705 311.968 288.246 293.745 280.696 276.73C280.238 275.495 279.533 274.367 278.623 273.414C277.141 271.91 274.769 271.49 272.981 270.348Z" fill="#CACACA"/>
<path d="M299.243 523.378L296.513 543.921L215.975 543.166L220.005 512.846L299.243 523.378Z" fill="#FFB6B6"/>
<path d="M294.522 518.931L318.169 522.074L309.761 585.332C303.575 584.341 297.994 581.016 294.176 576.028C290.227 570.869 288.488 564.354 289.34 557.914L289.341 557.913L289.342 557.903M294.522 518.931L287.965 557.72L289.342 557.903M294.522 518.931L289.342 557.901L289.342 557.903M294.522 518.931L289.342 557.903" fill="white" stroke="white" stroke-width="3"/>
<path d="M108.213 440.977C107.577 440.573 106.826 439.749 106.683 438.689C105.746 431.795 100.215 425.933 93.5631 423.051C86.9253 420.176 79.2714 419.991 71.7922 420.702L71.7917 420.702C66.19 421.233 60.3124 422.566 55.3627 425.027C50.4206 427.484 46.496 431.014 44.5792 435.914L44.5769 435.919C44.4944 436.128 44.3575 436.466 44.1762 436.913C43.2457 439.211 41.1443 444.399 39.2043 449.816C38.0453 453.052 36.9557 456.338 36.2136 459.11C35.8423 460.497 35.5649 461.729 35.4074 462.748C35.2444 463.803 35.2324 464.494 35.2992 464.865C37.6465 477.721 46.4743 488.839 57.3355 496.603C68.2011 504.369 80.9383 509.037 93.834 513.299C127.86 524.521 162.77 532.858 198.194 538.224C198.571 538.281 198.948 538.337 199.326 538.394C204.689 539.199 210.233 540.032 215.52 541.806C215.52 541.806 215.52 541.806 215.52 541.806L215.043 543.228C218.036 544.231 220.912 545.537 223.788 546.843C225.651 547.689 227.514 548.535 229.408 549.299L108.213 440.977ZM108.213 440.977C108.363 442.536 109.061 444.037 109.915 445.29C111.113 447.048 112.797 448.589 114.439 449.507C115.462 450.079 116.586 450.587 117.635 451.061C118.104 451.273 118.559 451.479 118.982 451.68C120.425 452.366 121.678 453.071 122.694 454.031C123.09 454.409 123.446 454.815 123.852 455.278C123.942 455.381 124.035 455.487 124.131 455.596C124.636 456.168 125.22 456.806 125.927 457.362L125.97 457.396L126.016 457.427C127.776 458.616 129.755 459.443 131.837 459.859C155.556 466.286 178.108 476.482 200.676 486.691C200.676 486.692 200.676 486.692 200.676 486.692L220.318 495.583L220.32 495.585C220.675 495.745 221.092 495.981 221.618 496.283L221.646 496.299C222.138 496.581 222.709 496.908 223.289 497.183C224.342 497.682 226.041 498.324 227.593 497.468C231.129 495.586 235.17 494.871 239.138 495.426C243.088 495.978 246.764 497.761 249.643 500.52C250.249 501.21 250.942 501.819 251.703 502.333L251.809 502.405L251.926 502.458C253.651 503.235 255.581 503.434 257.427 503.026C258.436 502.894 259.42 502.745 260.386 502.599C263.932 502.061 267.228 501.561 270.526 502.095C274.678 502.767 278.39 505.658 278.744 509.242L108.213 440.977ZM108.482 439.205C108.446 439.157 108.412 439.106 108.381 439.054C108.357 439.101 108.338 439.147 108.324 439.189L108.482 439.205Z" fill="#CACACA" stroke="white" stroke-width="3"/>
<path d="M160.617 425.99C168.349 425.99 174.617 419.722 174.617 411.99C174.617 404.258 168.349 397.99 160.617 397.99C152.885 397.99 146.617 404.258 146.617 411.99C146.617 419.722 152.885 425.99 160.617 425.99Z" fill="#FBBEBE"/>
<path d="M191.617 425.99C199.349 425.99 205.617 419.722 205.617 411.99C205.617 404.258 199.349 397.99 191.617 397.99C183.885 397.99 177.617 404.258 177.617 411.99C177.617 419.722 183.885 425.99 191.617 425.99Z" fill="#FBBEBE"/>
<path d="M278.034 442.037H85.6982C83.8499 442.035 82.0778 441.3 80.7708 439.993C79.464 438.686 78.7287 436.915 78.7263 435.066V318.382C78.7287 316.534 79.464 314.762 80.7708 313.455C82.0776 312.149 83.8494 311.413 85.6974 311.411H278.035C279.883 311.413 281.654 312.149 282.961 313.455C284.268 314.762 285.003 316.534 285.006 318.383V435.066C285.003 436.914 284.268 438.686 282.961 439.993C281.654 441.3 279.882 442.035 278.034 442.037Z" fill="#939393" stroke="white" stroke-width="3"/>
<path d="M181.399 382.328C184.494 382.328 187.003 379.819 187.003 376.724C187.003 373.629 184.494 371.12 181.399 371.12C178.304 371.12 175.795 373.629 175.795 376.724C175.795 379.819 178.304 382.328 181.399 382.328Z" fill="white"/>
<path d="M868.03 210.452H618.137C616.811 210.451 615.54 209.923 614.603 208.986C613.666 208.049 613.138 206.778 613.137 205.452V158.352H615.137V205.452C615.138 206.248 615.454 207.01 616.016 207.573C616.579 208.135 617.341 208.451 618.137 208.452H868.03C868.825 208.451 869.587 208.135 870.15 207.573C870.712 207.01 871.029 206.248 871.03 205.452V158.023H873.03V205.452C873.028 206.778 872.501 208.049 871.563 208.986C870.626 209.923 869.355 210.451 868.03 210.452Z" fill="#C4C2DD"/>
<path d="M958.617 157.352H371.397V159.352H958.617V157.352Z" fill="#CCCCCC"/>
<path d="M371.439 175.398C380.94 175.398 388.641 167.697 388.641 158.196C388.641 148.696 380.94 140.994 371.439 140.994C361.939 140.994 354.237 148.696 354.237 158.196C354.237 167.697 361.939 175.398 371.439 175.398Z" fill="#CCCCCC"/>
<path d="M546.244 175.398C555.745 175.398 563.446 167.697 563.446 158.196C563.446 148.696 555.745 140.994 546.244 140.994C536.744 140.994 529.042 148.696 529.042 158.196C529.042 167.697 536.744 175.398 546.244 175.398Z" fill="#CACACA"/>
<path d="M664.876 225.959C674.377 225.959 682.078 218.258 682.078 208.757C682.078 199.257 674.377 191.555 664.876 191.555C655.376 191.555 647.674 199.257 647.674 208.757C647.674 218.258 655.376 225.959 664.876 225.959Z" fill="#C4C2DD"/>
<path d="M755.063 225.959C764.564 225.959 772.265 218.258 772.265 208.757C772.265 199.257 764.564 191.555 755.063 191.555C745.563 191.555 737.861 199.257 737.861 208.757C737.861 218.258 745.563 225.959 755.063 225.959Z" fill="#C4C2DD"/>
<path d="M711.36 175.398C720.861 175.398 728.562 167.697 728.562 158.196C728.562 148.696 720.861 140.994 711.36 140.994C701.86 140.994 694.158 148.696 694.158 158.196C694.158 167.697 701.86 175.398 711.36 175.398Z" fill="#C4C2DD"/>
<path d="M956.259 175.398C965.76 175.398 973.461 167.697 973.461 158.196C973.461 148.696 965.76 140.994 956.259 140.994C946.759 140.994 939.057 148.696 939.057 158.196C939.057 167.697 946.759 175.398 956.259 175.398Z" fill="#CCCCCC"/>
<path d="M872.029 175.398C881.53 175.398 889.231 167.697 889.231 158.196C889.231 148.696 881.53 140.994 872.029 140.994C862.529 140.994 854.827 148.696 854.827 158.196C854.827 167.697 862.529 175.398 872.029 175.398Z" fill="#E4E4E4"/>
<path d="M680.446 0H648.54V21.9898H680.446V0Z" fill="#3F3D56"/>
<path d="M387.519 0H355.612V21.9898H387.519V0Z" fill="black"/>
<path d="M495.591 0H463.685V21.9898H495.591V0Z" fill="#CCCCCC"/>
<path d="M424.782 159.352C424.517 159.352 424.263 159.247 424.075 159.059C423.888 158.872 423.782 158.617 423.782 158.352V108.99C423.784 107.664 424.311 106.393 425.248 105.456C426.186 104.519 427.457 103.991 428.782 103.99H477.457C477.722 103.99 477.977 104.095 478.164 104.283C478.352 104.47 478.457 104.725 478.457 104.99C478.457 105.255 478.352 105.509 478.164 105.697C477.977 105.884 477.722 105.99 477.457 105.99H428.782C427.987 105.991 427.224 106.307 426.662 106.869C426.099 107.432 425.783 108.194 425.782 108.99V158.352C425.782 158.617 425.677 158.872 425.489 159.059C425.302 159.247 425.047 159.352 424.782 159.352Z" fill="#3F3D56"/>
<path d="M479.744 121.818C489.245 121.818 496.946 114.116 496.946 104.616C496.946 95.1157 489.245 87.4141 479.744 87.4141C470.244 87.4141 462.542 95.1157 462.542 104.616C462.542 114.116 470.244 121.818 479.744 121.818Z" fill="#E6E6E6"/>
<path d="M809.782 158.352H807.782V108.99C807.784 107.664 808.311 106.393 809.248 105.456C810.186 104.519 811.457 103.991 812.782 103.99H861.457V105.99H812.782C811.987 105.991 811.224 106.307 810.662 106.869C810.099 107.432 809.783 108.194 809.782 108.99V158.352Z" fill="#3F3D56"/>
<path d="M863.744 121.818C873.245 121.818 880.946 114.116 880.946 104.616C880.946 95.1157 873.245 87.4141 863.744 87.4141C854.244 87.4141 846.542 95.1157 846.542 104.616C846.542 114.116 854.244 121.818 863.744 121.818Z" fill="#E6E6E6"/>
</g>
<defs>
<clipPath id="clip0_54_62">
<rect width="973.461" height="587.025" fill="white"/>
</clipPath>
</defs>
</svg>
