<svg width="480" height="440" viewBox="0 0 480 440" fill="none" xmlns="http://www.w3.org/2000/svg">
<g clip-path="url(#clip0_40_638)">
<path d="M233.886 390.559L234.752 437.984C233.931 437.995 233.109 438 232.285 438C197.102 438 152.492 418.158 111.732 390.37L111.732 390.37C108.704 388.306 105.699 386.198 102.72 384.047L105.214 368.075L191.043 356.082L233.886 390.559Z" fill="#939393" stroke="white" stroke-width="4"/>
<path d="M241.032 106.937H228.469C228.08 106.937 227.707 107.099 227.432 107.389C227.157 107.679 227.002 108.071 227.002 108.481V121.707C227.002 121.91 227.041 122.11 227.114 122.297C227.188 122.484 227.296 122.654 227.433 122.797C227.569 122.94 227.731 123.053 227.909 123.13C228.087 123.207 228.277 123.246 228.469 123.246H241.032C241.42 123.246 241.793 123.084 242.068 122.796C242.343 122.507 242.498 122.116 242.499 121.707V108.481C242.498 108.071 242.343 107.679 242.068 107.39C241.793 107.101 241.421 106.938 241.032 106.937Z" fill="white"/>
<path d="M241.032 129.476H228.469C228.08 129.476 227.707 129.639 227.432 129.929C227.157 130.218 227.002 130.611 227.002 131.021V144.247C227.002 144.45 227.041 144.65 227.114 144.837C227.188 145.024 227.296 145.194 227.433 145.337C227.569 145.48 227.731 145.593 227.909 145.67C228.087 145.747 228.277 145.786 228.469 145.786H241.032C241.42 145.786 241.793 145.624 242.068 145.336C242.343 145.047 242.498 144.656 242.499 144.247V131.021C242.498 130.611 242.343 130.219 242.068 129.93C241.793 129.641 241.421 129.477 241.032 129.476Z" fill="#E6E6E6"/>
<path d="M241.032 152.016H228.469C228.08 152.016 227.707 152.179 227.432 152.468C227.157 152.758 227.002 153.151 227.002 153.56V166.781C227.002 166.984 227.04 167.185 227.113 167.372C227.187 167.56 227.295 167.73 227.431 167.874C227.567 168.017 227.729 168.131 227.908 168.208C228.086 168.286 228.277 168.325 228.469 168.325H241.032C241.421 168.325 241.794 168.162 242.069 167.873C242.344 167.583 242.499 167.19 242.499 166.781V153.56C242.498 153.151 242.343 152.759 242.068 152.469C241.793 152.18 241.421 152.017 241.032 152.016Z" fill="#E6E6E6"/>
<path d="M242.477 175.826C242.414 175.471 242.235 175.149 241.972 174.917C241.708 174.685 241.376 174.557 241.032 174.555H228.469C228.08 174.555 227.707 174.718 227.432 175.008C227.157 175.297 227.002 175.69 227.002 176.099V189.32C227.002 189.523 227.04 189.724 227.113 189.912C227.187 190.099 227.295 190.27 227.431 190.413C227.567 190.557 227.729 190.67 227.908 190.748C228.086 190.825 228.277 190.865 228.469 190.865H241.032C241.421 190.864 241.794 190.702 242.069 190.412C242.344 190.123 242.499 189.73 242.499 189.32V176.099C242.5 176.008 242.493 175.916 242.477 175.826Z" fill="#E6E6E6"/>
<path d="M241.602 197.214C241.421 197.135 241.227 197.095 241.032 197.095H228.469C228.277 197.094 228.086 197.134 227.908 197.211C227.729 197.289 227.567 197.403 227.431 197.546C227.295 197.69 227.187 197.86 227.113 198.048C227.04 198.235 227.002 198.436 227.002 198.639V211.86C227.001 212.063 227.039 212.264 227.112 212.452C227.186 212.64 227.294 212.81 227.43 212.954C227.566 213.097 227.729 213.211 227.907 213.288C228.085 213.366 228.277 213.405 228.469 213.404H241.032C241.421 213.404 241.794 213.241 242.069 212.952C242.344 212.662 242.499 212.269 242.499 211.86V198.639C242.499 198.335 242.413 198.038 242.254 197.785C242.094 197.531 241.868 197.333 241.602 197.214Z" fill="#E6E6E6"/>
<path d="M267.421 106.937H254.858C254.469 106.937 254.096 107.099 253.821 107.389C253.546 107.679 253.391 108.071 253.391 108.481V121.707C253.391 121.91 253.43 122.11 253.503 122.297C253.577 122.484 253.685 122.654 253.822 122.797C253.958 122.94 254.12 123.053 254.298 123.13C254.476 123.207 254.666 123.246 254.858 123.246H267.421C267.809 123.246 268.182 123.084 268.457 122.796C268.732 122.507 268.887 122.116 268.888 121.707V108.481C268.887 108.071 268.732 107.679 268.457 107.39C268.182 107.101 267.81 106.938 267.421 106.937Z" fill="#E6E6E6"/>
<path d="M254.858 144.786L254.855 144.786C254.802 144.786 254.747 144.775 254.695 144.752C254.642 144.729 254.591 144.694 254.545 144.646C254.5 144.599 254.461 144.539 254.433 144.47C254.406 144.4 254.391 144.324 254.391 144.247L254.391 131.021C254.391 131.021 254.391 131.021 254.391 131.021C254.391 131.021 254.391 131.021 254.391 131.021C254.391 130.86 254.452 130.716 254.546 130.618C254.638 130.521 254.752 130.476 254.859 130.476H267.419C267.526 130.477 267.64 130.522 267.732 130.619C267.826 130.718 267.888 130.862 267.888 131.022V144.245C267.887 144.405 267.826 144.548 267.733 144.645C267.641 144.742 267.528 144.786 267.421 144.786H267.421L254.858 144.786Z" stroke="white" stroke-width="2"/>
<path d="M254.391 166.783V166.781L254.391 153.56C254.391 153.56 254.391 153.56 254.391 153.56C254.391 153.56 254.391 153.56 254.391 153.56C254.391 153.4 254.452 153.256 254.546 153.157C254.638 153.06 254.752 153.016 254.859 153.016H267.419C267.526 153.016 267.64 153.061 267.732 153.158C267.826 153.257 267.888 153.401 267.888 153.562V166.78C267.888 166.941 267.827 167.085 267.733 167.184C267.641 167.281 267.528 167.325 267.42 167.325L254.858 167.325L254.856 167.325C254.803 167.325 254.748 167.314 254.695 167.291C254.642 167.268 254.591 167.233 254.545 167.185C254.499 167.137 254.46 167.077 254.433 167.007C254.406 166.937 254.391 166.861 254.391 166.783Z" stroke="white" stroke-width="2"/>
<path d="M254.422 175.92L254.419 175.929C254.401 175.983 254.391 176.041 254.391 176.099L254.422 175.92ZM254.422 175.92L254.424 175.912M254.422 175.92L254.424 175.912M254.424 175.912C254.461 175.796 254.528 175.704 254.608 175.643C254.686 175.583 254.774 175.555 254.859 175.555H267.419C267.526 175.556 267.64 175.601 267.732 175.698C267.826 175.797 267.888 175.941 267.888 176.101V189.32C267.888 189.48 267.827 189.625 267.733 189.723C267.641 189.82 267.527 189.865 267.42 189.865L254.858 189.865L254.856 189.865C254.803 189.865 254.748 189.854 254.695 189.831C254.642 189.808 254.591 189.772 254.545 189.724C254.499 189.676 254.46 189.616 254.433 189.546C254.406 189.477 254.391 189.4 254.391 189.322V189.32M254.424 175.912L254.391 189.32M254.391 189.32V176.1V189.32Z" stroke="white" stroke-width="2"/>
<path d="M267.421 197.095H254.858C254.666 197.094 254.475 197.134 254.297 197.211C254.118 197.289 253.956 197.403 253.82 197.546C253.684 197.69 253.576 197.86 253.502 198.048C253.429 198.235 253.391 198.436 253.391 198.639V211.86C253.391 212.063 253.429 212.264 253.502 212.451C253.576 212.639 253.684 212.809 253.82 212.953C253.956 213.096 254.118 213.21 254.297 213.287C254.475 213.365 254.666 213.404 254.858 213.404H267.421C267.81 213.404 268.183 213.241 268.458 212.952C268.733 212.662 268.888 212.269 268.888 211.86V198.639C268.888 198.229 268.733 197.837 268.458 197.547C268.183 197.258 267.81 197.095 267.421 197.095Z" fill="#E6E6E6"/>
<path d="M281.247 122.246L281.245 122.246C281.191 122.246 281.137 122.235 281.084 122.212C281.031 122.189 280.98 122.154 280.934 122.107C280.889 122.059 280.85 121.999 280.822 121.93C280.795 121.86 280.78 121.785 280.78 121.707L280.78 108.481C280.78 108.481 280.78 108.481 280.78 108.481C280.78 108.321 280.841 108.176 280.935 108.078C281.027 107.981 281.141 107.937 281.248 107.937H293.808C293.915 107.937 294.029 107.982 294.121 108.079C294.215 108.178 294.277 108.322 294.277 108.482V121.705C294.276 121.865 294.215 122.008 294.122 122.106C294.03 122.202 293.917 122.246 293.81 122.246H293.81L281.247 122.246Z" stroke="white" stroke-width="2"/>
<path d="M281.247 144.786L281.245 144.786C281.191 144.786 281.137 144.775 281.084 144.752C281.031 144.729 280.98 144.694 280.934 144.646C280.889 144.599 280.85 144.539 280.822 144.47C280.795 144.4 280.78 144.324 280.78 144.247L280.78 131.021C280.78 131.021 280.78 131.021 280.78 131.021C280.78 131.021 280.78 131.021 280.78 131.021C280.78 130.86 280.841 130.716 280.935 130.618C281.027 130.521 281.141 130.476 281.248 130.476H293.808C293.915 130.477 294.029 130.522 294.121 130.619C294.215 130.718 294.277 130.862 294.277 131.022V144.245C294.276 144.405 294.215 144.548 294.122 144.645C294.03 144.742 293.917 144.786 293.81 144.786H293.81L281.247 144.786Z" stroke="white" stroke-width="2"/>
<path d="M293.81 152.016H281.248C280.858 152.016 280.485 152.179 280.21 152.468C279.935 152.758 279.78 153.151 279.78 153.56V166.781C279.78 166.984 279.818 167.185 279.891 167.372C279.965 167.56 280.073 167.73 280.209 167.874C280.345 168.017 280.507 168.131 280.686 168.208C280.864 168.286 281.055 168.325 281.248 168.325H293.81C294.199 168.325 294.572 168.162 294.847 167.873C295.122 167.583 295.277 167.19 295.277 166.781V153.56C295.276 153.151 295.121 152.759 294.846 152.469C294.571 152.18 294.199 152.017 293.81 152.016Z" fill="#E6E6E6"/>
<path d="M280.78 189.322V189.32V176.1C280.78 175.94 280.841 175.795 280.935 175.697C281.027 175.6 281.141 175.555 281.248 175.555H293.808C293.915 175.556 294.029 175.601 294.121 175.698C294.215 175.797 294.277 175.941 294.277 176.101V189.32C294.277 189.48 294.216 189.625 294.122 189.723C294.03 189.82 293.917 189.865 293.809 189.865L281.248 189.865L281.245 189.865C281.192 189.865 281.137 189.854 281.084 189.831C281.031 189.808 280.98 189.772 280.934 189.724C280.888 189.676 280.849 189.616 280.822 189.546C280.795 189.477 280.78 189.4 280.78 189.322Z" stroke="white" stroke-width="2"/>
<path d="M281.245 198.095V198.095H281.248L293.809 198.095C293.81 198.095 293.81 198.095 293.81 198.095C293.917 198.095 294.03 198.139 294.122 198.236C294.216 198.335 294.277 198.479 294.277 198.639V211.859C294.277 212.02 294.216 212.164 294.122 212.263C294.03 212.36 293.917 212.404 293.809 212.404L281.248 212.404L281.245 212.404C281.192 212.404 281.137 212.393 281.084 212.37C281.031 212.347 280.98 212.312 280.934 212.264C280.888 212.216 280.849 212.156 280.822 212.086C280.795 212.016 280.78 211.94 280.78 211.862V211.86V198.639H280.78L280.78 198.637C280.78 198.559 280.795 198.483 280.822 198.413C280.849 198.343 280.888 198.283 280.934 198.235C280.98 198.187 281.031 198.152 281.084 198.129C281.137 198.106 281.192 198.095 281.245 198.095Z" stroke="white" stroke-width="2"/>
<path d="M307.636 122.246L307.633 122.246C307.58 122.246 307.525 122.235 307.473 122.212C307.42 122.189 307.369 122.154 307.323 122.107C307.278 122.059 307.239 121.999 307.211 121.93C307.184 121.861 307.169 121.785 307.169 121.707V108.481C307.169 108.321 307.23 108.176 307.324 108.078C307.416 107.981 307.53 107.937 307.637 107.937H320.197C320.304 107.937 320.418 107.982 320.51 108.079C320.604 108.178 320.665 108.322 320.666 108.482V121.705C320.665 121.865 320.604 122.008 320.511 122.106C320.419 122.202 320.306 122.246 320.199 122.246H320.199L307.636 122.246Z" stroke="white" stroke-width="2"/>
<path d="M320.199 129.476H307.636C307.247 129.476 306.874 129.639 306.599 129.929C306.324 130.218 306.169 130.611 306.169 131.021V144.247C306.169 144.45 306.207 144.65 306.281 144.837C306.355 145.024 306.463 145.194 306.6 145.337C306.736 145.48 306.898 145.593 307.076 145.67C307.253 145.747 307.444 145.786 307.636 145.786H320.199C320.587 145.786 320.959 145.624 321.235 145.336C321.51 145.047 321.665 144.656 321.666 144.247V131.021C321.665 130.611 321.51 130.219 321.235 129.93C320.96 129.641 320.588 129.477 320.199 129.476Z" fill="white"/>
<path d="M320.199 152.016H307.636C307.247 152.016 306.874 152.179 306.599 152.468C306.324 152.758 306.169 153.151 306.169 153.56V166.781C306.169 166.984 306.206 167.185 306.28 167.372C306.354 167.56 306.462 167.73 306.598 167.874C306.734 168.017 306.896 168.131 307.074 168.208C307.253 168.286 307.444 168.325 307.636 168.325H320.199C320.588 168.325 320.961 168.162 321.236 167.873C321.511 167.583 321.666 167.19 321.666 166.781V153.56C321.665 153.151 321.51 152.759 321.235 152.469C320.96 152.18 320.588 152.017 320.199 152.016Z" fill="white"/>
<path d="M320.199 174.555H307.636C307.247 174.555 306.874 174.718 306.599 175.008C306.324 175.297 306.169 175.69 306.169 176.099V189.32C306.169 189.523 306.206 189.724 306.28 189.912C306.354 190.099 306.462 190.27 306.598 190.413C306.734 190.557 306.896 190.67 307.074 190.748C307.253 190.825 307.444 190.865 307.636 190.865H320.199C320.588 190.864 320.961 190.702 321.236 190.412C321.511 190.123 321.666 189.73 321.666 189.32V176.099C321.665 175.69 321.51 175.298 321.235 175.009C320.96 174.72 320.588 174.556 320.199 174.555Z" fill="#E6E6E6"/>
<path d="M307.634 198.095V198.095H307.636L320.198 198.095C320.198 198.095 320.198 198.095 320.199 198.095C320.306 198.095 320.419 198.139 320.511 198.236C320.605 198.335 320.666 198.479 320.666 198.639V211.859C320.666 212.02 320.605 212.164 320.511 212.263C320.419 212.36 320.305 212.404 320.198 212.404L307.636 212.404L307.634 212.404C307.58 212.404 307.526 212.393 307.473 212.37C307.42 212.347 307.369 212.312 307.323 212.264C307.277 212.216 307.238 212.156 307.211 212.086C307.184 212.016 307.169 211.94 307.169 211.862V211.86L307.169 198.639L307.169 198.637C307.169 198.559 307.184 198.483 307.211 198.413C307.238 198.343 307.277 198.283 307.323 198.235C307.369 198.187 307.42 198.152 307.473 198.129C307.526 198.106 307.58 198.095 307.634 198.095Z" stroke="white" stroke-width="2"/>
<path d="M346.588 106.937H334.02C333.632 106.938 333.26 107.101 332.986 107.391C332.712 107.68 332.559 108.072 332.559 108.481V121.707C332.559 122.115 332.713 122.507 332.987 122.795C333.261 123.084 333.633 123.246 334.02 123.246H346.588C346.977 123.246 347.349 123.084 347.624 122.796C347.899 122.507 348.054 122.116 348.056 121.707V108.481C348.055 108.071 347.9 107.679 347.625 107.39C347.35 107.101 346.977 106.938 346.588 106.937Z" fill="white"/>
<path d="M346.588 129.476H334.02C333.632 129.478 333.26 129.641 332.986 129.931C332.712 130.22 332.559 130.612 332.559 131.021V144.247C332.559 144.655 332.713 145.046 332.987 145.335C333.261 145.623 333.633 145.785 334.02 145.786H346.588C346.977 145.786 347.349 145.624 347.624 145.336C347.899 145.047 348.054 144.656 348.056 144.247V131.021C348.055 130.611 347.9 130.219 347.625 129.93C347.35 129.641 346.977 129.477 346.588 129.476Z" fill="white"/>
<path d="M346.588 152.016H334.02C333.632 152.017 333.26 152.181 332.986 152.47C332.712 152.759 332.559 153.151 332.559 153.56V166.781C332.558 166.983 332.596 167.184 332.669 167.371C332.742 167.558 332.85 167.729 332.985 167.872C333.121 168.015 333.282 168.129 333.46 168.207C333.638 168.285 333.828 168.325 334.02 168.325H346.588C346.978 168.325 347.351 168.162 347.626 167.873C347.901 167.583 348.056 167.19 348.056 166.781V153.56C348.055 153.151 347.9 152.759 347.625 152.469C347.35 152.18 346.977 152.017 346.588 152.016Z" fill="white"/>
<path d="M334.02 190.865C333.828 190.864 333.638 190.824 333.46 190.746C333.282 190.669 333.121 190.555 332.985 190.411C332.85 190.268 332.742 190.098 332.669 189.911C332.596 189.723 332.558 189.523 332.559 189.32V176.099C332.559 175.691 332.712 175.299 332.986 175.009C333.26 174.72 333.632 174.557 334.02 174.555M334.02 190.865H346.588M334.02 190.865V189.865H334.021C333.968 189.864 333.913 189.853 333.861 189.83C333.808 189.807 333.757 189.772 333.712 189.724C333.666 189.676 333.627 189.616 333.6 189.546C333.573 189.477 333.559 189.401 333.559 189.323V189.32V176.099L333.559 176.099C333.559 175.939 333.619 175.795 333.713 175.697C333.804 175.6 333.917 175.556 334.023 175.555M334.02 190.865L334.022 189.865L346.588 189.865M346.588 190.865C346.978 190.864 347.351 190.702 347.626 190.412C347.901 190.123 348.056 189.73 348.056 189.32M346.588 190.865L346.588 189.865M346.588 190.865V189.865H346.588M348.056 189.32V176.099C348.055 175.69 347.9 175.298 347.625 175.009C347.35 174.72 346.977 174.556 346.588 174.555M348.056 189.32H347.056V189.32M348.056 189.32L347.056 189.32M346.588 174.555H334.02M346.588 174.555V175.555H346.586M346.588 174.555L346.585 175.555C346.586 175.555 346.586 175.555 346.586 175.555M334.02 174.555V175.555H334.023M334.02 174.555L334.024 175.555C334.024 175.555 334.023 175.555 334.023 175.555M334.023 175.555H346.586M346.588 189.865C346.695 189.865 346.809 189.82 346.901 189.723C346.995 189.625 347.056 189.48 347.056 189.32M347.056 189.32V176.101M347.056 176.101C347.056 176.102 347.056 176.102 347.056 176.102L348.056 176.099H347.056V176.101ZM347.056 176.101C347.055 175.941 346.994 175.797 346.9 175.698C346.808 175.601 346.694 175.556 346.586 175.555" stroke="white" stroke-width="2"/>
<path d="M346.588 197.095H334.02C333.828 197.095 333.638 197.135 333.46 197.213C333.282 197.291 333.121 197.404 332.985 197.548C332.85 197.691 332.742 197.862 332.669 198.049C332.596 198.236 332.558 198.437 332.559 198.639V211.86C332.558 212.062 332.596 212.263 332.669 212.45C332.742 212.637 332.85 212.808 332.985 212.951C333.121 213.094 333.282 213.208 333.46 213.286C333.638 213.364 333.828 213.404 334.02 213.404H346.588C346.978 213.404 347.351 213.241 347.626 212.952C347.901 212.662 348.056 212.269 348.056 211.86V198.639C348.056 198.229 347.901 197.837 347.626 197.547C347.351 197.258 346.978 197.095 346.588 197.095Z" fill="#E6E6E6"/>
<path d="M372.977 106.937H360.409C360.02 106.938 359.649 107.101 359.375 107.391C359.101 107.68 358.947 108.072 358.947 108.481V121.707C358.947 122.115 359.101 122.507 359.375 122.795C359.649 123.084 360.021 123.246 360.409 123.246H372.977C373.365 123.246 373.737 123.084 374.012 122.796C374.287 122.507 374.443 122.116 374.444 121.707V108.481C374.443 108.071 374.288 107.679 374.013 107.39C373.738 107.101 373.366 106.938 372.977 106.937Z" fill="white"/>
<path d="M372.977 129.476H360.409C360.02 129.478 359.649 129.641 359.375 129.931C359.101 130.22 358.947 130.612 358.947 131.021V144.247C358.947 144.655 359.101 145.046 359.375 145.335C359.649 145.623 360.021 145.785 360.409 145.786H372.977C373.365 145.786 373.737 145.624 374.012 145.336C374.287 145.047 374.443 144.656 374.444 144.247V131.021C374.443 130.611 374.288 130.219 374.013 129.93C373.738 129.641 373.366 129.477 372.977 129.476Z" fill="white"/>
<path d="M360.409 168.325C360.216 168.325 360.026 168.285 359.848 168.207C359.671 168.129 359.509 168.015 359.374 167.872C359.238 167.729 359.13 167.558 359.057 167.371C358.984 167.184 358.946 166.983 358.947 166.781V153.56C358.947 153.151 359.101 152.759 359.375 152.47C359.649 152.181 360.02 152.017 360.409 152.016M360.409 168.325H372.977M360.409 168.325V167.325H360.41M360.409 168.325L360.41 167.325M372.977 168.325C373.366 168.325 373.739 168.162 374.014 167.873C374.289 167.583 374.444 167.19 374.444 166.781V153.56M372.977 168.325L372.976 167.325M372.977 168.325V167.325H372.976M374.444 153.56C374.443 153.151 374.288 152.759 374.013 152.469C373.738 152.18 373.366 152.017 372.977 152.016M374.444 153.56L373.444 153.563C373.444 153.562 373.444 153.562 373.444 153.562M374.444 153.56H373.444V153.562M372.977 152.016H360.409M372.977 152.016V153.016H372.975M372.977 152.016L372.974 153.016C372.974 153.016 372.974 153.016 372.975 153.016M360.409 152.016V153.016H360.411M360.409 152.016L360.412 153.016C360.412 153.016 360.412 153.016 360.411 153.016M360.411 153.016H372.975M360.411 153.016C360.305 153.017 360.192 153.061 360.101 153.157C360.008 153.256 359.947 153.4 359.947 153.56L359.947 153.56V166.781V166.784C359.947 166.861 359.961 166.937 359.988 167.007C360.016 167.077 360.054 167.136 360.1 167.185C360.145 167.233 360.197 167.268 360.249 167.291C360.302 167.314 360.356 167.325 360.41 167.325M360.41 167.325H372.976M372.976 167.325C373.083 167.325 373.197 167.281 373.289 167.184C373.383 167.085 373.444 166.941 373.444 166.78M373.444 166.78V166.781H374.443L373.444 166.78ZM373.444 166.78V153.562M373.444 153.562C373.443 153.401 373.382 153.257 373.288 153.158C373.196 153.061 373.082 153.016 372.975 153.016" stroke="white" stroke-width="2"/>
<path d="M372.977 174.555H360.409C360.02 174.557 359.649 174.72 359.375 175.009C359.101 175.299 358.947 175.691 358.947 176.099V189.32C358.946 189.523 358.984 189.723 359.057 189.911C359.13 190.098 359.238 190.268 359.374 190.411C359.509 190.555 359.671 190.669 359.848 190.746C360.026 190.824 360.216 190.864 360.409 190.865H372.977C373.366 190.864 373.739 190.702 374.014 190.412C374.289 190.123 374.444 189.73 374.444 189.32V176.099C374.443 175.69 374.288 175.298 374.013 175.009C373.738 174.72 373.366 174.556 372.977 174.555Z" fill="#E6E6E6"/>
<path d="M372.977 197.095H360.409C360.216 197.095 360.026 197.135 359.848 197.213C359.671 197.291 359.509 197.404 359.374 197.548C359.238 197.691 359.13 197.862 359.057 198.049C358.984 198.236 358.946 198.437 358.947 198.639V211.86C358.946 212.062 358.984 212.263 359.057 212.45C359.13 212.637 359.238 212.808 359.374 212.951C359.509 213.094 359.671 213.208 359.848 213.286C360.026 213.364 360.216 213.404 360.409 213.404H372.977C373.366 213.404 373.739 213.241 374.014 212.952C374.289 212.662 374.444 212.269 374.444 211.86V198.639C374.444 198.229 374.289 197.837 374.014 197.547C373.739 197.258 373.366 197.095 372.977 197.095Z" fill="white"/>
<path d="M399.678 108.079C399.772 108.178 399.833 108.322 399.834 108.482V121.705C399.833 121.865 399.772 122.008 399.679 122.106C399.587 122.202 399.473 122.246 399.367 122.246H399.366H386.799C386.799 122.246 386.798 122.246 386.798 122.246C386.693 122.246 386.581 122.202 386.49 122.106C386.397 122.009 386.337 121.866 386.337 121.707C386.337 121.707 386.337 121.707 386.337 121.707V108.481L386.337 108.48C386.337 108.32 386.397 108.177 386.491 108.078C386.582 107.982 386.694 107.937 386.801 107.937H399.364C399.472 107.937 399.586 107.982 399.678 108.079Z" stroke="white" stroke-width="2"/>
<path d="M386.337 131.021L386.337 131.02C386.337 130.86 386.397 130.716 386.491 130.618C386.582 130.521 386.694 130.477 386.801 130.476H399.364C399.472 130.477 399.586 130.522 399.678 130.619C399.772 130.718 399.833 130.862 399.834 131.022V144.245C399.833 144.405 399.772 144.548 399.679 144.645C399.587 144.742 399.473 144.786 399.367 144.786H399.366H386.799C386.798 144.786 386.798 144.786 386.798 144.786C386.693 144.785 386.581 144.742 386.49 144.646C386.397 144.549 386.337 144.406 386.337 144.247C386.337 144.247 386.337 144.247 386.337 144.247L386.337 131.021Z" stroke="white" stroke-width="2"/>
<path d="M399.366 152.016H386.798C386.41 152.017 386.038 152.181 385.764 152.47C385.49 152.759 385.337 153.151 385.337 153.56V166.781C385.336 166.983 385.374 167.184 385.447 167.371C385.52 167.558 385.627 167.729 385.763 167.872C385.899 168.015 386.06 168.129 386.238 168.207C386.416 168.285 386.606 168.325 386.798 168.325H399.366C399.755 168.325 400.129 168.162 400.404 167.873C400.679 167.583 400.834 167.19 400.834 166.781V153.56C400.833 153.151 400.678 152.759 400.403 152.469C400.128 152.18 399.755 152.017 399.366 152.016Z" fill="#E6E6E6"/>
<path d="M399.366 174.555H386.798C386.41 174.557 386.038 174.72 385.764 175.009C385.49 175.299 385.337 175.691 385.337 176.099V189.32C385.336 189.523 385.374 189.723 385.447 189.911C385.52 190.098 385.627 190.268 385.763 190.411C385.899 190.555 386.06 190.669 386.238 190.746C386.416 190.824 386.606 190.864 386.798 190.865H399.366C399.755 190.864 400.129 190.702 400.404 190.412C400.679 190.123 400.834 189.73 400.834 189.32V176.099C400.833 175.69 400.678 175.298 400.403 175.009C400.128 174.72 399.755 174.556 399.366 174.555Z" fill="white"/>
<path d="M385.337 211.86V198.639V211.86ZM385.337 211.86C385.336 212.062 385.374 212.263 385.447 212.45C385.52 212.637 385.627 212.808 385.763 212.951C385.899 213.094 386.06 213.208 386.238 213.286C386.416 213.364 386.606 213.404 386.798 213.404L385.337 211.86ZM386.337 198.639H386.337L386.337 198.636C386.336 198.558 386.351 198.482 386.378 198.413C386.405 198.343 386.444 198.283 386.489 198.235C386.535 198.187 386.586 198.152 386.639 198.129C386.691 198.106 386.746 198.095 386.799 198.095H399.366C399.473 198.095 399.587 198.139 399.679 198.236C399.773 198.335 399.834 198.479 399.834 198.639V211.859C399.834 212.02 399.773 212.164 399.679 212.263C399.587 212.36 399.473 212.404 399.366 212.404H386.799C386.746 212.404 386.691 212.393 386.639 212.37C386.586 212.347 386.535 212.312 386.49 212.264C386.444 212.215 386.405 212.155 386.378 212.086C386.351 212.016 386.336 211.94 386.337 211.862V211.86V198.639Z" stroke="white" stroke-width="2"/>
<path d="M412.725 108.481L412.725 108.48C412.725 108.32 412.786 108.177 412.879 108.078C412.97 107.982 413.083 107.937 413.189 107.937H425.753C425.86 107.937 425.974 107.982 426.066 108.079C426.16 108.178 426.221 108.322 426.222 108.482V121.705C426.221 121.865 426.16 122.008 426.067 122.106C425.975 122.202 425.862 122.246 425.755 122.246H425.755H413.187C413.187 122.246 413.187 122.246 413.187 122.246C413.081 122.246 412.969 122.202 412.878 122.106C412.785 122.009 412.725 121.866 412.725 121.707C412.725 121.707 412.725 121.707 412.725 121.707V108.481Z" stroke="white" stroke-width="2"/>
<path d="M412.725 131.021L412.725 131.02C412.725 130.86 412.785 130.716 412.879 130.618C412.97 130.521 413.083 130.477 413.189 130.476H425.753C425.86 130.477 425.974 130.522 426.066 130.619C426.16 130.718 426.221 130.862 426.222 131.022V144.245C426.221 144.405 426.16 144.548 426.067 144.645C425.975 144.742 425.862 144.786 425.755 144.786H425.755H413.187C413.187 144.786 413.187 144.786 413.187 144.786C413.081 144.785 412.969 144.742 412.878 144.646C412.785 144.549 412.725 144.406 412.725 144.247C412.725 144.247 412.725 144.247 412.725 144.247L412.725 131.021Z" stroke="white" stroke-width="2"/>
<path d="M425.755 152.016H413.187C412.798 152.017 412.427 152.181 412.153 152.47C411.879 152.759 411.725 153.151 411.725 153.56V166.781C411.724 166.983 411.762 167.184 411.835 167.371C411.908 167.558 412.016 167.729 412.151 167.872C412.287 168.015 412.449 168.129 412.626 168.207C412.804 168.285 412.994 168.325 413.187 168.325H425.755C426.144 168.325 426.517 168.162 426.792 167.873C427.067 167.583 427.222 167.19 427.222 166.781V153.56C427.221 153.151 427.066 152.759 426.791 152.469C426.516 152.18 426.143 152.017 425.755 152.016Z" fill="#E6E6E6"/>
<path d="M413.187 190.865C412.994 190.864 412.804 190.824 412.626 190.746C412.449 190.669 412.287 190.555 412.151 190.411C412.016 190.268 411.908 190.098 411.835 189.911C411.762 189.723 411.724 189.523 411.725 189.32V176.099C411.725 175.691 411.879 175.299 412.153 175.009C412.427 174.72 412.798 174.557 413.187 174.555M413.187 190.865H425.755C426.144 190.864 426.517 190.702 426.792 190.412C427.067 190.123 427.222 189.73 427.222 189.32M413.187 190.865V189.865H413.187C413.134 189.864 413.08 189.853 413.027 189.83C412.974 189.807 412.923 189.772 412.878 189.724C412.832 189.676 412.793 189.616 412.766 189.546C412.739 189.477 412.725 189.401 412.725 189.323V189.32V176.099L412.725 176.099C412.725 175.939 412.786 175.795 412.879 175.697C412.97 175.6 413.083 175.556 413.189 175.555M413.187 190.865L413.188 189.865L425.754 189.865M427.222 189.32V176.099M427.222 189.32H426.222M427.222 189.32L426.222 189.32M427.222 176.099C427.221 175.69 427.066 175.298 426.791 175.009C426.516 174.72 426.143 174.556 425.755 174.555H413.187M427.222 176.099L426.222 176.102C426.222 176.102 426.222 176.101 426.222 176.101M427.222 176.099H426.222V176.101M413.187 174.555V175.555H413.189M413.187 174.555L413.19 175.555C413.19 175.555 413.189 175.555 413.189 175.555M413.189 175.555H425.753M425.753 175.555C425.86 175.556 425.974 175.601 426.066 175.698C426.16 175.797 426.221 175.941 426.222 176.101M425.753 175.555H425.755V174.555L425.751 175.555C425.752 175.555 425.752 175.555 425.753 175.555ZM425.754 189.865L425.755 190.864V189.865H425.754ZM425.754 189.865C425.861 189.865 425.975 189.82 426.067 189.723C426.161 189.625 426.222 189.481 426.222 189.32M426.222 189.32L426.222 189.32M426.222 189.32C426.222 189.32 426.222 189.32 426.222 189.32M426.222 189.32L426.222 176.101" stroke="white" stroke-width="2"/>
<path d="M426.222 211.86C426.222 212.02 426.161 212.164 426.067 212.263C425.975 212.36 425.861 212.404 425.754 212.404H413.188C413.134 212.404 413.08 212.393 413.027 212.37C412.975 212.347 412.923 212.312 412.878 212.264C412.832 212.215 412.793 212.155 412.766 212.086C412.739 212.016 412.725 211.94 412.725 211.862V211.86V198.639H412.725L426.222 211.86ZM426.222 211.86C426.222 211.86 426.222 211.86 426.222 211.859M426.222 211.86L426.222 211.859M426.222 211.859V198.639M411.725 198.639V211.86V198.639Z" stroke="white" stroke-width="2"/>
<path d="M452.144 106.937H439.576C439.188 106.938 438.816 107.101 438.542 107.391C438.268 107.68 438.114 108.072 438.115 108.481V121.707C438.115 122.115 438.269 122.507 438.543 122.795C438.817 123.084 439.189 123.246 439.576 123.246H452.144C452.533 123.246 452.905 123.084 453.18 122.796C453.455 122.507 453.61 122.116 453.612 121.707V108.481C453.61 108.071 453.456 107.679 453.181 107.39C452.906 107.101 452.533 106.938 452.144 106.937Z" fill="#E6E6E6"/>
<path d="M439.115 131.021L439.115 131.02C439.115 130.86 439.175 130.716 439.268 130.618C439.36 130.521 439.472 130.477 439.579 130.476H452.142C452.25 130.477 452.363 130.522 452.456 130.619C452.55 130.718 452.611 130.862 452.612 131.022V144.245C452.611 144.405 452.55 144.548 452.456 144.645C452.365 144.742 452.251 144.786 452.145 144.786H452.144H439.576C439.576 144.786 439.576 144.786 439.576 144.786C439.471 144.785 439.359 144.742 439.268 144.646C439.175 144.549 439.115 144.406 439.115 144.247C439.115 144.247 439.115 144.247 439.115 144.247L439.115 131.021Z" stroke="white" stroke-width="2"/>
<path d="M439.576 168.325C439.384 168.325 439.193 168.285 439.016 168.207C438.838 168.129 438.677 168.015 438.541 167.872C438.405 167.729 438.298 167.558 438.225 167.371C438.151 167.184 438.114 166.983 438.115 166.781V153.56C438.114 153.151 438.268 152.759 438.542 152.47C438.816 152.181 439.188 152.017 439.576 152.016H452.144M439.576 168.325H452.144M439.576 168.325L439.577 167.325M439.576 168.325V167.325H439.577M452.144 168.325C452.533 168.325 452.907 168.162 453.182 167.873C453.457 167.583 453.611 167.19 453.612 166.781V153.56M452.144 168.325L452.144 167.325M452.144 168.325V167.325H452.144M453.612 153.56C453.61 153.151 453.456 152.759 453.181 152.469C452.906 152.18 452.533 152.017 452.144 152.016M453.612 153.56H452.612V153.562M453.612 153.56L452.612 153.563C452.612 153.562 452.612 153.562 452.612 153.562M452.144 152.016L452.141 153.016C452.142 153.016 452.142 153.016 452.142 153.016M452.144 152.016V153.016H452.142M452.142 153.016H439.579M452.142 153.016C452.25 153.016 452.363 153.061 452.456 153.158C452.55 153.257 452.611 153.401 452.612 153.562M439.579 153.016C439.472 153.017 439.36 153.061 439.268 153.157C439.175 153.256 439.115 153.4 439.115 153.56L439.115 153.56V166.781V166.784C439.114 166.861 439.129 166.938 439.156 167.007C439.183 167.076 439.222 167.136 439.267 167.185C439.313 167.233 439.364 167.268 439.417 167.291C439.469 167.314 439.524 167.325 439.577 167.325M439.579 153.016H439.576V152.016L439.58 153.016C439.58 153.016 439.579 153.016 439.579 153.016ZM452.612 153.562V166.78M452.612 166.78C452.612 166.941 452.55 167.085 452.457 167.184C452.365 167.281 452.251 167.325 452.144 167.325M452.612 166.78L453.611 166.781H452.612V166.78ZM452.144 167.325H439.577" stroke="white" stroke-width="2"/>
<path d="M439.576 190.865C439.384 190.864 439.193 190.824 439.016 190.746C438.838 190.669 438.677 190.555 438.541 190.411C438.405 190.268 438.298 190.098 438.225 189.911C438.151 189.723 438.114 189.523 438.115 189.32V176.099C438.114 175.691 438.268 175.299 438.542 175.009C438.816 174.72 439.188 174.557 439.576 174.555M439.576 190.865H452.144M439.576 190.865V189.865H439.577C439.523 189.864 439.469 189.853 439.417 189.83C439.364 189.807 439.313 189.772 439.267 189.724C439.222 189.676 439.183 189.616 439.156 189.546C439.129 189.477 439.114 189.401 439.115 189.323V189.32V176.099L439.115 176.099C439.115 175.939 439.175 175.795 439.268 175.697C439.36 175.6 439.472 175.556 439.579 175.555M439.576 190.865L439.577 189.865L452.144 189.865M452.144 190.865C452.533 190.864 452.907 190.702 453.182 190.412C453.457 190.123 453.611 189.73 453.612 189.32M452.144 190.865L452.144 189.865M452.144 190.865V189.865H452.144M453.612 189.32V176.099M453.612 189.32H452.612V189.32M453.612 189.32L452.612 189.32M453.612 176.099C453.61 175.69 453.456 175.298 453.181 175.009C452.906 174.72 452.533 174.556 452.144 174.555M453.612 176.099L452.612 176.102C452.612 176.102 452.612 176.102 452.612 176.101M453.612 176.099H452.612V176.101M452.144 174.555H439.576M452.144 174.555V175.555H452.142M452.144 174.555L452.141 175.555C452.142 175.555 452.142 175.555 452.142 175.555M439.576 174.555V175.555H439.579M439.576 174.555L439.58 175.555C439.58 175.555 439.579 175.555 439.579 175.555M439.579 175.555H452.142M452.144 189.865C452.251 189.865 452.365 189.82 452.457 189.723C452.55 189.625 452.612 189.48 452.612 189.32M452.612 189.32V176.101M452.612 176.101C452.611 175.941 452.55 175.797 452.456 175.698C452.363 175.601 452.25 175.556 452.142 175.555" stroke="white" stroke-width="2"/>
<path d="M452.144 197.095H439.576C439.384 197.095 439.193 197.135 439.016 197.213C438.838 197.291 438.677 197.404 438.541 197.548C438.405 197.691 438.298 197.862 438.225 198.049C438.151 198.236 438.114 198.437 438.115 198.639V211.86C438.114 212.062 438.151 212.263 438.225 212.45C438.298 212.637 438.405 212.808 438.541 212.951C438.677 213.094 438.838 213.208 439.016 213.286C439.193 213.364 439.384 213.404 439.576 213.404H452.144C452.533 213.404 452.907 213.241 453.182 212.952C453.457 212.662 453.611 212.269 453.612 211.86V198.639C453.611 198.229 453.457 197.837 453.182 197.547C452.907 197.258 452.533 197.095 452.144 197.095Z" fill="#E6E6E6"/>
<path d="M478.533 106.937H465.965C465.576 106.938 465.204 107.101 464.93 107.391C464.656 107.68 464.503 108.072 464.503 108.481V121.707C464.503 122.115 464.657 122.507 464.931 122.795C465.205 123.084 465.577 123.246 465.965 123.246H478.533C478.921 123.246 479.293 123.084 479.568 122.796C479.843 122.507 479.999 122.116 480 121.707V108.481C479.999 108.071 479.844 107.679 479.569 107.39C479.294 107.101 478.921 106.938 478.533 106.937Z" fill="#E6E6E6"/>
<path d="M478.533 129.476H465.965C465.576 129.478 465.204 129.641 464.93 129.931C464.656 130.22 464.503 130.612 464.503 131.021V144.247C464.503 144.655 464.657 145.046 464.931 145.335C465.205 145.623 465.577 145.785 465.965 145.786H478.533C478.921 145.786 479.293 145.624 479.568 145.336C479.843 145.047 479.999 144.656 480 144.247V131.021C479.999 130.611 479.844 130.219 479.569 129.93C479.294 129.641 478.921 129.477 478.533 129.476Z" fill="#E6E6E6"/>
<path d="M465.965 168.325C465.772 168.325 465.582 168.285 465.404 168.207C465.226 168.129 465.065 168.015 464.929 167.872C464.794 167.729 464.686 167.558 464.613 167.371C464.54 167.184 464.502 166.983 464.503 166.781V153.56C464.503 153.151 464.656 152.759 464.93 152.47C465.204 152.181 465.576 152.017 465.965 152.016M465.965 168.325H478.533C478.922 168.325 479.295 168.162 479.57 167.873C479.845 167.583 480 167.19 480 166.781V153.56M465.965 168.325V167.325H465.966M465.965 168.325L465.966 167.325M480 153.56C479.999 153.151 479.844 152.759 479.569 152.469C479.294 152.18 478.921 152.017 478.533 152.016M480 153.56H479V153.562M480 153.56L479 153.563C479 153.562 479 153.562 479 153.562M478.533 152.016H465.965M478.533 152.016L478.529 153.016C478.53 153.016 478.53 153.016 478.531 153.016M478.533 152.016V153.016H478.531M465.965 152.016V153.016H465.967M465.965 152.016L465.968 153.016C465.968 153.016 465.967 153.016 465.967 153.016M465.967 153.016C465.861 153.017 465.748 153.061 465.657 153.157C465.563 153.256 465.503 153.4 465.503 153.56L465.503 153.56L465.503 166.781V166.784C465.503 166.861 465.517 166.937 465.544 167.007C465.571 167.076 465.61 167.136 465.656 167.184C465.701 167.233 465.752 167.268 465.805 167.291C465.858 167.314 465.912 167.325 465.966 167.325M465.967 153.016H478.531M465.966 167.325H478.532M478.532 167.325C478.639 167.325 478.753 167.281 478.845 167.184C478.939 167.085 479 166.941 479 166.78M478.532 167.325L478.533 168.324V167.325H478.532ZM478.531 153.016C478.638 153.016 478.752 153.061 478.844 153.158C478.938 153.257 478.999 153.401 479 153.562M479 153.562V166.78M479 166.78L479.999 166.781H479V166.78Z" stroke="white" stroke-width="2"/>
<path d="M478.533 174.555H465.965C465.576 174.557 465.204 174.72 464.93 175.009C464.656 175.299 464.503 175.691 464.503 176.099V189.32C464.502 189.523 464.54 189.723 464.613 189.911C464.686 190.098 464.794 190.268 464.929 190.411C465.065 190.555 465.226 190.669 465.404 190.746C465.582 190.824 465.772 190.864 465.965 190.865H478.533C478.922 190.864 479.295 190.702 479.57 190.412C479.845 190.123 480 189.73 480 189.32V176.099C479.999 175.69 479.844 175.298 479.569 175.009C479.294 174.72 478.921 174.556 478.533 174.555Z" fill="#E6E6E6"/>
<path d="M478.533 197.095H465.965C465.772 197.095 465.582 197.135 465.404 197.213C465.226 197.291 465.065 197.404 464.929 197.548C464.794 197.691 464.686 197.862 464.613 198.049C464.54 198.236 464.502 198.437 464.503 198.639V211.86C464.502 212.062 464.54 212.263 464.613 212.45C464.686 212.637 464.794 212.808 464.929 212.951C465.065 213.094 465.226 213.208 465.404 213.286C465.582 213.364 465.772 213.404 465.965 213.404H478.533C478.922 213.404 479.295 213.241 479.57 212.952C479.845 212.662 480 212.269 480 211.86V198.639C480 198.229 479.845 197.837 479.57 197.547C479.295 197.258 478.922 197.095 478.533 197.095Z" fill="#E6E6E6"/>
<path d="M189.641 392.02H189.325L189.595 391.982L189.641 392.02Z" fill="#2F2E41"/>
<path d="M197.163 104.967C197.163 126.874 180.301 144.545 159.606 144.545C138.911 144.545 122.048 126.874 122.048 104.967C122.048 83.0594 138.911 65.3883 159.606 65.3883C180.301 65.3883 197.163 83.0594 197.163 104.967Z" fill="#FFB6B6" stroke="white" stroke-width="2"/>
<path d="M193.372 75.2154C193.372 75.2154 203.456 54.9262 181.27 53.0817C181.27 53.0817 162.356 35.0249 143.077 49.7806C143.077 49.7806 132.562 49.7806 126.811 62.3041C126.811 62.3041 118.541 59.003 116.723 67.8375C116.723 67.8375 110.672 86.2822 116.723 102.882C122.775 119.483 124.785 121.327 124.785 121.327C124.785 121.327 114.841 86.5239 139.046 84.6793C163.252 82.8348 190.338 66.9153 192.355 87.2044C194.373 107.494 197.408 112.493 197.408 112.493C197.408 112.493 216.568 83.5155 193.372 75.2154Z" fill="#FCFCFC"/>
<path d="M257.113 206.084L255.859 213.05L255.859 213.05L246.226 266.621L246.225 266.623L245.656 269.775L245.655 269.777L244.459 276.446L244.459 276.447L242.823 285.545L242.823 285.545L239.194 305.709L239.194 305.71L238.155 311.489L240.124 311.842L238.155 311.489L237.766 313.656L237.765 313.659L237.631 314.415L237.63 314.419L236.553 320.394L236.553 320.396L236.226 322.2L236.216 322.251L236.21 322.302L233.58 342.81L233.58 342.811L231.283 360.681L231.162 361.624L231.817 362.314L238.194 369.026L234.921 372.471L234.498 372.915L234.398 373.521L231.66 390.022H111.223C106.775 386.981 102.385 383.855 98.0525 380.644L98.9015 373.955L98.9148 373.9C98.9406 373.793 98.978 373.636 99.0248 373.437C99.1185 373.038 99.2504 372.469 99.4038 371.781C99.7103 370.407 100.105 368.55 100.454 366.633C100.802 364.727 101.114 362.712 101.242 361.037C101.306 360.205 101.33 359.393 101.273 358.691C101.244 358.34 101.191 357.965 101.091 357.605C100.998 357.267 100.824 356.799 100.465 356.38C99.6775 355.462 98.4618 354.227 97.4823 353.257C97.1857 352.963 96.9058 352.689 96.6588 352.448L100.172 343.819L100.172 343.819L100.731 342.447L100.896 342.04L100.876 341.601L99.9395 321.153L99.9395 321.152L99.917 320.66L99.917 320.659L99.6066 313.919L99.6066 313.918L99.5671 313.052L99.5669 313.047L99.505 311.75L99.5048 311.747L98.3142 285.808L98.3135 285.794L98.2916 285.38L98.2909 285.366L97.9305 277.518L97.9305 277.516L97.5919 270.04L97.5918 270.038L97.4451 266.885L97.445 266.884L95.9948 235.33L95.9947 235.33L95.0128 213.901L95.0128 213.901L94.223 196.724L96.2769 195.992L96.2788 195.991L133.159 182.8L133.738 182.593L134.1 182.097L148.772 162.024L179.542 162.266L179.542 162.266L194.302 162.384L219.697 187.17L219.919 187.387L220.196 187.526L226.088 190.488L226.117 190.503L226.133 190.511L226.149 190.519L230.387 192.651L230.388 192.652L241.133 198.05L241.133 198.051L252.493 203.764L252.494 203.765L257.113 206.084Z" fill="#CACACA" stroke="white" stroke-width="4"/>
<path d="M151.871 331.145C149.541 332.095 147.041 332.496 144.548 332.319C142.055 332.143 139.629 331.393 137.441 330.123C135.254 328.853 133.357 327.093 131.885 324.968C130.413 322.843 129.402 320.404 128.922 317.824L68.7862 308.845L89.6912 283.958L143.593 296.3C147.766 295.74 151.989 296.81 155.462 299.308C158.936 301.806 161.418 305.558 162.438 309.853C163.459 314.148 162.947 318.688 160.999 322.612C159.051 326.537 155.804 329.573 151.871 331.145Z" fill="#FFB6B6"/>
<path d="M123.858 286.799L123.86 286.802C124.395 287.513 124.787 288.338 125.004 289.227C125.222 290.115 125.261 291.043 125.118 291.949L125.117 291.955L125.083 292.173L125.083 292.175L121.736 313.78L121.736 313.782L121.341 316.348L121.339 316.362L121.337 316.377C121.333 316.405 121.328 316.434 121.323 316.462C121.318 316.489 121.312 316.516 121.306 316.542L121.296 316.581L121.288 316.62C120.977 318.245 120.098 319.669 118.85 320.619C117.605 321.566 116.079 321.977 114.575 321.787L114.571 321.787L98.1254 319.755L98.1252 319.755L62.5886 315.372C62.5884 315.372 62.5883 315.372 62.5881 315.372C58.15 314.823 53.8728 313.271 50.0493 310.818C46.2254 308.365 42.9442 305.067 40.4343 301.146C37.9244 297.225 36.2464 292.775 35.519 288.1C34.7917 283.425 35.0328 278.64 36.2253 274.073L48.6578 226.506L48.6579 226.506L54.6851 203.431L54.6864 203.426C55.6058 199.856 57.3002 196.565 59.6302 193.812C61.96 191.06 64.8604 188.922 68.0986 187.562L68.0992 187.561C68.2281 187.507 68.3578 187.455 68.4783 187.409L68.4936 187.403L68.5087 187.397C73.0226 185.572 77.9704 185.324 82.6259 186.688C87.2825 188.052 91.4131 190.96 94.3988 194.999C97.7992 199.601 99.5178 205.35 99.2257 211.191L99.2257 211.192C99.1216 213.298 98.7476 215.378 98.1144 217.376L98.1137 217.378L92.5662 234.97L84.0163 262.083L84.0157 262.085C83.509 263.699 83.3167 265.402 83.4492 267.094L83.4493 267.095C83.5964 268.953 84.1274 270.758 85.0084 272.383L85.012 272.39C85.8627 273.941 87.0183 275.292 88.4073 276.35C89.7967 277.409 91.3876 278.15 93.0768 278.521L93.0792 278.521L95.6119 279.073L95.6131 279.074L120.285 284.472L120.288 284.473C121.686 284.776 122.954 285.592 123.858 286.799Z" fill="#CACACA" stroke="white" stroke-width="3"/>
<path d="M190.532 330.381L190.532 330.381L190.522 330.379C186.794 329.495 183.485 327.198 181.234 323.9C178.982 320.6 177.953 316.534 178.354 312.474C178.754 308.415 180.555 304.666 183.394 301.933C186.232 299.201 189.909 297.671 193.725 297.612L193.996 297.608L194.249 297.51L245.098 277.628L266.461 296.772L210.672 313.81L209.663 314.117L209.612 315.171C209.493 317.589 208.872 319.948 207.795 322.081C206.719 324.213 205.214 326.065 203.392 327.509C201.571 328.953 199.476 329.955 197.256 330.45C195.037 330.945 192.742 330.921 190.532 330.381Z" fill="#FFB6B6" stroke="white" stroke-width="3"/>
<path d="M269.273 190.954L269.274 190.956L297.017 258.153C298.809 262.494 299.69 267.195 299.597 271.932C299.504 276.669 298.439 281.327 296.477 285.585C294.516 289.843 291.707 293.599 288.246 296.599C284.786 299.598 280.755 301.77 276.433 302.973C276.433 302.973 276.432 302.973 276.432 302.973L241.923 312.564L241.921 312.565L239.197 313.325L239.196 313.325L225.833 317.037L225.827 317.039C224.44 317.43 222.965 317.29 221.662 316.637C220.356 315.983 219.297 314.85 218.694 313.424L218.682 313.398L218.67 313.371C218.612 313.248 218.562 313.12 218.522 312.987L218.509 312.944L218.493 312.901C218.469 312.836 218.447 312.766 218.414 312.661C218.412 312.657 218.411 312.653 218.41 312.649L211.476 289.297L211.475 289.295L211.413 289.087L211.412 289.084C210.922 287.457 211.052 285.694 211.77 284.171C212.487 282.65 213.726 281.503 215.204 280.948L215.21 280.946L239.973 271.533L239.974 271.532L241.35 271.01L241.351 271.01C242.971 270.394 244.443 269.426 245.673 268.176C246.902 266.925 247.863 265.42 248.494 263.762C249.126 262.103 249.417 260.325 249.349 258.544C249.281 256.762 248.856 255.014 248.1 253.412L248.099 253.411L228.494 211.973L228.493 211.971L228.152 211.253C228.151 211.252 228.151 211.251 228.15 211.25C226.563 207.861 225.753 204.124 225.787 200.34C225.822 196.564 226.696 192.852 228.337 189.502L228.353 189.476L228.393 189.396C229.868 186.408 231.922 183.786 234.417 181.699C236.912 179.612 239.792 178.106 242.868 177.274L242.869 177.274C246.23 176.364 249.745 176.296 253.135 177.074L253.154 177.079L253.174 177.083C253.398 177.128 253.631 177.185 253.877 177.251L253.877 177.251L253.89 177.255C255.491 177.67 257.047 178.266 258.529 179.034C263.321 181.536 267.134 185.753 269.273 190.954Z" fill="#CACACA" stroke="white" stroke-width="3"/>
<path d="M306.229 341.065H306.226H51.9799C44.0301 333.169 36.5137 324.804 29.4672 316.01H412.809C403.535 337.292 390.932 356.788 375.523 373.682L375.521 373.684C373.378 376.04 371.18 378.341 368.929 380.587L368.926 380.59C365.487 384.034 361.936 387.34 358.271 390.509L358.27 390.51C345.879 401.242 332.303 410.349 317.842 417.636L317.492 352.821C317.492 352.82 317.492 352.818 317.492 352.817C317.488 349.735 316.324 346.76 314.226 344.55C312.123 342.336 309.25 341.07 306.229 341.065Z" stroke="white" stroke-width="4"/>
<path d="M377 375.031C374.839 377.412 372.619 379.737 370.341 382.003H316.045V375.031H377Z" fill="white"/>
<path d="M257.948 152.474L257.953 152.484C258.13 152.817 258.223 153.197 258.221 153.585V153.59V269.131H68.9465V153.59C68.9471 152.966 69.1831 152.377 69.5882 151.95C69.9914 151.525 70.5269 151.296 71.0745 151.294L256.089 151.294C256.461 151.294 256.83 151.399 257.157 151.604C257.485 151.809 257.76 152.108 257.948 152.474Z" fill="#939393" stroke="white" stroke-width="2"/>
<mask id="path-63-inside-1_40_638" fill="white">
<path d="M67.7789 266.975V281.356C67.7788 281.953 67.8904 282.543 68.1072 283.094C68.324 283.645 68.6417 284.145 69.0423 284.567C69.4429 284.988 69.9185 285.323 70.4418 285.551C70.9652 285.779 71.5261 285.896 72.0926 285.896H142.691V314.278H141.753C141.679 314.278 141.607 314.293 141.539 314.323C141.471 314.353 141.409 314.396 141.357 314.451C141.305 314.506 141.263 314.571 141.235 314.642C141.207 314.714 141.193 314.79 141.193 314.868V316.842C141.193 316.919 141.207 316.996 141.235 317.068C141.263 317.139 141.305 317.204 141.357 317.259C141.409 317.314 141.471 317.357 141.539 317.387C141.607 317.416 141.679 317.432 141.753 317.432H185.58C185.653 317.432 185.726 317.416 185.794 317.387C185.862 317.357 185.924 317.314 185.976 317.259C186.028 317.204 186.069 317.139 186.097 317.068C186.125 316.996 186.14 316.919 186.14 316.842V314.868C186.14 314.79 186.125 314.714 186.097 314.642C186.069 314.571 186.028 314.506 185.976 314.451C185.924 314.396 185.862 314.353 185.794 314.323C185.726 314.293 185.653 314.278 185.58 314.278H184.642V285.896H255.24C255.806 285.896 256.367 285.779 256.891 285.551C257.414 285.323 257.89 284.988 258.29 284.567C258.691 284.145 259.009 283.645 259.225 283.094C259.442 282.543 259.554 281.953 259.554 281.356V266.975H67.7789Z"/>
</mask>
<path d="M67.7789 266.975V281.356C67.7788 281.953 67.8904 282.543 68.1072 283.094C68.324 283.645 68.6417 284.145 69.0423 284.567C69.4429 284.988 69.9185 285.323 70.4418 285.551C70.9652 285.779 71.5261 285.896 72.0926 285.896H142.691V314.278H141.753C141.679 314.278 141.607 314.293 141.539 314.323C141.471 314.353 141.409 314.396 141.357 314.451C141.305 314.506 141.263 314.571 141.235 314.642C141.207 314.714 141.193 314.79 141.193 314.868V316.842C141.193 316.919 141.207 316.996 141.235 317.068C141.263 317.139 141.305 317.204 141.357 317.259C141.409 317.314 141.471 317.357 141.539 317.387C141.607 317.416 141.679 317.432 141.753 317.432H185.58C185.653 317.432 185.726 317.416 185.794 317.387C185.862 317.357 185.924 317.314 185.976 317.259C186.028 317.204 186.069 317.139 186.097 317.068C186.125 316.996 186.14 316.919 186.14 316.842V314.868C186.14 314.79 186.125 314.714 186.097 314.642C186.069 314.571 186.028 314.506 185.976 314.451C185.924 314.396 185.862 314.353 185.794 314.323C185.726 314.293 185.653 314.278 185.58 314.278H184.642V285.896H255.24C255.806 285.896 256.367 285.779 256.891 285.551C257.414 285.323 257.89 284.988 258.29 284.567C258.691 284.145 259.009 283.645 259.225 283.094C259.442 282.543 259.554 281.953 259.554 281.356V266.975H67.7789Z" fill="#939393"/>
<path d="M67.7789 266.975V264.975H65.7789V266.975H67.7789ZM67.7789 281.356L69.7789 281.356V281.356H67.7789ZM72.0926 285.896L72.0926 287.896H72.0926V285.896ZM142.691 285.896H144.691V283.896H142.691V285.896ZM142.691 314.278V316.278H144.691V314.278H142.691ZM141.753 314.278L141.753 316.278H141.753V314.278ZM141.193 314.868L143.193 314.868L143.193 314.868L141.193 314.868ZM141.193 316.842L143.193 316.842V316.842H141.193ZM141.753 317.432L141.753 315.432L141.753 315.432L141.753 317.432ZM185.58 317.432L185.58 315.432H185.58V317.432ZM186.14 316.842L184.14 316.842L184.14 316.842L186.14 316.842ZM186.14 314.868L184.14 314.868V314.868H186.14ZM185.58 314.278L185.58 316.278L185.58 316.278L185.58 314.278ZM184.642 314.278H182.642V316.278H184.642V314.278ZM184.642 285.896V283.896H182.642V285.896H184.642ZM255.24 285.896L255.24 287.896L255.24 287.896L255.24 285.896ZM259.554 281.356L257.554 281.356L257.554 281.356L259.554 281.356ZM259.554 266.975H261.554V264.975H259.554V266.975ZM65.7789 266.975V281.356H69.7789V266.975H65.7789ZM65.7789 281.356C65.7788 282.201 65.9369 283.04 66.2462 283.826L69.9683 282.361C69.844 282.045 69.7789 281.704 69.7789 281.356L65.7789 281.356ZM66.2462 283.826C66.5555 284.612 67.0114 285.333 67.5925 285.944L70.4922 283.189C70.2721 282.957 70.0925 282.677 69.9683 282.361L66.2462 283.826ZM67.5925 285.944C68.1738 286.556 68.8695 287.047 69.6426 287.384L71.241 283.717C70.9674 283.598 70.712 283.42 70.4922 283.189L67.5925 285.944ZM69.6426 287.384C70.416 287.721 71.2488 287.896 72.0926 287.896L72.0927 283.896C71.8035 283.896 71.5144 283.837 71.241 283.717L69.6426 287.384ZM72.0926 287.896H142.691V283.896H72.0926V287.896ZM140.691 285.896V314.278H144.691V285.896H140.691ZM142.691 312.278H141.753V316.278H142.691V312.278ZM141.753 312.278C141.402 312.278 141.057 312.351 140.74 312.49L142.338 316.156C142.156 316.236 141.957 316.278 141.753 316.278L141.753 312.278ZM140.74 312.49C140.422 312.628 140.14 312.828 139.907 313.073L142.807 315.829C142.678 315.964 142.519 316.077 142.338 316.156L140.74 312.49ZM139.907 313.073C139.674 313.318 139.495 313.603 139.374 313.91L143.096 315.375C143.032 315.538 142.935 315.693 142.807 315.829L139.907 313.073ZM139.374 313.91C139.254 314.216 139.193 314.542 139.193 314.868L143.193 314.868C143.193 315.039 143.161 315.211 143.096 315.375L139.374 313.91ZM139.193 314.868V316.842H143.193V314.868H139.193ZM139.193 316.842C139.193 317.168 139.254 317.493 139.374 317.8L143.096 316.335C143.161 316.499 143.193 316.671 143.193 316.842L139.193 316.842ZM139.374 317.8C139.495 318.107 139.674 318.392 139.907 318.637L142.807 315.881C142.935 316.017 143.032 316.172 143.096 316.335L139.374 317.8ZM139.907 318.637C140.14 318.882 140.422 319.082 140.739 319.22L142.338 315.553C142.52 315.633 142.678 315.746 142.807 315.881L139.907 318.637ZM140.739 319.22C141.058 319.359 141.402 319.432 141.753 319.432L141.753 315.432C141.957 315.432 142.156 315.474 142.338 315.553L140.739 319.22ZM141.753 319.432H185.58V315.432H141.753V319.432ZM185.579 319.432C185.93 319.432 186.275 319.359 186.593 319.22L184.995 315.553C185.177 315.474 185.376 315.432 185.58 315.432L185.579 319.432ZM186.593 319.22C186.911 319.082 187.193 318.882 187.426 318.637L184.526 315.881C184.655 315.746 184.813 315.633 184.995 315.553L186.593 319.22ZM187.426 318.637C187.658 318.392 187.838 318.107 187.958 317.8L184.236 316.335C184.301 316.172 184.397 316.017 184.526 315.881L187.426 318.637ZM187.958 317.8C188.079 317.493 188.14 317.168 188.14 316.842L184.14 316.842C184.14 316.671 184.172 316.499 184.236 316.335L187.958 317.8ZM188.14 316.842V314.868H184.14V316.842H188.14ZM188.14 314.868C188.14 314.542 188.079 314.216 187.958 313.91L184.236 315.375C184.172 315.211 184.14 315.039 184.14 314.868L188.14 314.868ZM187.958 313.91C187.838 313.603 187.658 313.318 187.426 313.073L184.526 315.829C184.398 315.693 184.301 315.538 184.236 315.375L187.958 313.91ZM187.426 313.073C187.193 312.828 186.911 312.628 186.593 312.49L184.995 316.156C184.813 316.077 184.655 315.964 184.526 315.829L187.426 313.073ZM186.593 312.49C186.275 312.351 185.93 312.278 185.579 312.278L185.58 316.278C185.376 316.278 185.177 316.236 184.995 316.156L186.593 312.49ZM185.58 312.278H184.642V316.278H185.58V312.278ZM186.642 314.278V285.896H182.642V314.278H186.642ZM184.642 287.896H255.24V283.896H184.642V287.896ZM255.24 287.896C256.084 287.896 256.917 287.721 257.69 287.384L256.092 283.717C255.818 283.837 255.529 283.896 255.24 283.896L255.24 287.896ZM257.69 287.384C258.463 287.047 259.159 286.556 259.74 285.944L256.84 283.189C256.621 283.42 256.365 283.598 256.092 283.717L257.69 287.384ZM259.74 285.944C260.321 285.333 260.777 284.612 261.086 283.826L257.364 282.361C257.24 282.677 257.06 282.957 256.84 283.189L259.74 285.944ZM261.086 283.826C261.396 283.04 261.554 282.201 261.554 281.356L257.554 281.356C257.554 281.704 257.489 282.045 257.364 282.361L261.086 283.826ZM261.554 281.356V266.975H257.554V281.356H261.554ZM259.554 264.975H67.7789V268.975H259.554V264.975Z" fill="white" mask="url(#path-63-inside-1_40_638)"/>
<path d="M178.017 207.105C178.017 216.871 170.507 224.699 161.349 224.699C152.191 224.699 144.681 216.871 144.681 207.105C144.681 197.34 152.191 189.511 161.349 189.511C170.507 189.511 178.017 197.34 178.017 207.105Z" stroke="white" stroke-width="2"/>
<path d="M206.365 102.749H203.543C203.543 80.2989 182.43 65.5873 161.132 65.5754C158.034 65.5658 154.943 65.8822 151.905 66.5197C148.485 67.2384 144.935 68.0996 141.447 69.2221C127.694 73.6587 114.94 82.2351 114.94 102.749C114.937 106.733 115.419 110.701 116.373 114.557L113.642 115.305C112.629 111.205 112.117 106.986 112.118 102.749C112.118 84.8246 119.11 72.5125 131.188 65.1715C137.536 61.311 145.285 58.8224 154.162 57.6108C157.856 57.0936 161.591 56.9742 165.308 57.2544C189.801 59.1075 206.365 78.8734 206.365 102.749Z" fill="black"/>
<path d="M211.065 104.394L209.953 95.7469C209.679 93.563 208.68 91.5517 207.132 90.0689C206.138 89.1023 204.948 88.3861 203.653 87.9745C202.358 87.5629 200.99 87.4667 199.654 87.6932L197.888 87.9486C197.404 88.0155 196.938 88.1828 196.517 88.4408C196.096 88.6987 195.727 89.0422 195.433 89.4512C195.136 89.8589 194.919 90.3243 194.794 90.8208C194.669 91.3172 194.639 91.8348 194.705 92.3436L197.273 112.264C197.378 113.076 197.724 113.832 198.261 114.426C198.798 115.02 199.498 115.421 200.264 115.572C200.49 115.62 200.721 115.644 200.952 115.643C201.118 115.643 201.284 115.632 201.449 115.608L203.424 115.329C204.628 115.161 205.787 114.735 206.829 114.078C207.872 113.422 208.775 112.547 209.485 111.51C209.637 111.284 209.784 111.052 209.92 110.815C210.977 108.871 211.381 106.609 211.065 104.394Z" fill="black"/>
<path d="M196.748 88.311C196.23 88.5759 195.779 88.9668 195.433 89.4513C195.136 89.859 194.919 90.3245 194.794 90.8209C194.669 91.3174 194.639 91.835 194.705 92.3438L197.273 112.264C197.378 113.076 197.724 113.832 198.261 114.426C198.798 115.02 199.498 115.421 200.264 115.572L196.748 88.311Z" fill="white"/>
<path d="M211.065 104.395L209.953 95.7471C209.679 93.5632 208.679 91.5519 207.131 90.0691L209.688 109.889C209.726 110.207 209.804 110.518 209.919 110.815C210.977 108.872 211.381 106.609 211.065 104.395Z" fill="#3F3D56"/>
<path d="M202.279 110.625C203.051 110.515 203.439 108.581 203.146 106.306C202.852 104.031 201.989 102.275 201.217 102.386C200.444 102.496 200.056 104.43 200.35 106.705C200.643 108.98 201.507 110.735 202.279 110.625Z" fill="#3F3D56"/>
<path d="M200.586 99.9347C201.358 99.8245 201.746 97.8907 201.453 95.6154C201.159 93.3401 200.296 91.585 199.524 91.6952C198.751 91.8054 198.363 93.7393 198.657 96.0146C198.95 98.2899 199.814 100.045 200.586 99.9347Z" fill="#3F3D56"/>
<path d="M211.308 104.092C212.08 103.982 212.469 102.048 212.175 99.7727C211.882 97.4974 211.018 95.7423 210.246 95.8526C209.474 95.9628 209.086 97.8966 209.379 100.172C209.672 102.447 210.536 104.202 211.308 104.092Z" fill="#3F3D56"/>
<path d="M151.699 65.541L151.699 65.5411C148.317 66.2518 144.793 67.1044 141.317 68.2136C138.74 68.0676 136.554 67.6439 134.939 67.0173C133.769 66.5632 132.998 66.0435 132.549 65.5271C138.595 62.0361 145.914 59.7458 154.297 58.6016L154.301 58.6011C157.836 58.1061 161.409 57.9826 164.967 58.2322C165.162 58.3814 165.335 58.5645 165.478 58.7763C165.659 59.0444 165.788 59.3515 165.854 59.6789C165.92 60.2817 165.645 61.0502 164.768 61.96C163.92 62.8399 162.61 63.7382 160.903 64.5753C157.812 64.5816 154.73 64.9051 151.699 65.541Z" stroke="white" stroke-width="2"/>
<path d="M125.104 123.359L120.758 104.347C120.603 103.661 120.259 103.039 119.769 102.558C119.279 102.077 118.665 101.76 118.004 101.645C117.817 101.614 117.629 101.598 117.44 101.597C117.174 101.598 116.908 101.632 116.65 101.698L114.968 102.126C112.803 102.677 110.934 104.11 109.771 106.109C108.608 108.109 108.247 110.513 108.766 112.793L110.713 121.322C111.157 123.33 112.216 125.128 113.726 126.441C113.971 126.649 114.227 126.842 114.494 127.017C115.44 127.641 116.495 128.06 117.597 128.247C118.699 128.435 119.826 128.388 120.911 128.11L122.587 127.683C123.03 127.574 123.447 127.37 123.811 127.083C124.353 126.667 124.766 126.091 124.996 125.428C125.226 124.765 125.263 124.044 125.104 123.359Z" fill="black"/>
<path d="M115.994 119.821C116.751 119.63 116.952 117.664 116.441 115.432C115.931 113.2 114.903 111.545 114.145 111.737C113.388 111.929 113.187 113.894 113.698 116.127C114.208 118.359 115.236 120.013 115.994 119.821Z" fill="#3F3D56"/>
<path d="M110.35 121.603C111.108 121.411 111.308 119.446 110.798 117.214C110.287 114.981 109.259 113.327 108.502 113.519C107.744 113.711 107.544 115.676 108.054 117.909C108.565 120.141 109.593 121.795 110.35 121.603Z" fill="#3F3D56"/>
<path d="M125.38 123.287L121.035 104.276C120.865 103.534 120.492 102.86 119.961 102.341C119.43 101.821 118.765 101.478 118.049 101.354L123.981 127.32C124.566 126.869 125.012 126.245 125.261 125.527C125.51 124.809 125.551 124.03 125.38 123.287Z" fill="white"/>
<path d="M109.748 109.027C109.628 108.499 109.403 108.003 109.088 107.572C108.477 109.237 108.364 111.059 108.766 112.793L110.713 121.322C111.157 123.33 112.216 125.128 113.726 126.441L109.748 109.027Z" fill="#3F3D56"/>
</g>
<defs>
<clipPath id="clip0_40_638">
<rect width="480" height="440" fill="white"/>
</clipPath>
</defs>
</svg>
