<svg width="480" height="440" viewBox="0 0 480 440" fill="none" xmlns="http://www.w3.org/2000/svg">
<g clip-path="url(#clip0_42_1763)">
<path d="M430.611 429.561C419.846 440.016 405.895 440.541 392.41 439.257C390.527 439.078 388.657 438.867 386.804 438.641C386.793 438.637 386.779 438.638 386.767 438.634C386.678 438.623 386.589 438.611 386.504 438.605C386.121 438.556 385.739 438.508 385.36 438.46L385.45 438.69L385.73 439.404C385.63 439.165 385.529 438.931 385.428 438.692C385.398 438.62 385.365 438.549 385.335 438.477C381.842 430.281 378.377 421.784 377.493 412.426C376.58 402.712 379.147 391.712 385.489 386.938C386.32 386.314 387.201 385.816 388.114 385.455C388.494 385.3 388.878 385.174 389.267 385.062C391.645 384.35 394.121 384.505 396.44 385.511C398.76 386.517 400.838 388.337 402.462 390.785C404.087 393.233 405.198 396.22 405.682 399.439C406.167 402.658 406.006 405.993 405.217 409.1C410.594 401.668 409.591 389.61 407.736 379.533C405.878 369.457 403.629 358.244 407.408 349.193C409.509 344.155 413.204 341.029 417.35 339.77C417.477 339.733 417.604 339.696 417.731 339.664C422.671 338.315 427.807 339.529 432.113 343.062C440.04 349.797 444.112 362.567 445.434 375.076C447.563 395.206 442.851 417.672 430.611 429.561Z" fill="#F2F2F2"/>
<path d="M427.136 397.292C426.823 401.732 426.032 406.087 424.787 410.219C423.64 413.876 422.094 417.281 420.2 420.322C416.262 426.535 411.275 431.383 405.658 434.458C401.409 436.803 396.958 438.416 392.41 439.257C390.527 439.078 388.657 438.867 386.804 438.641C386.793 438.637 386.779 438.638 386.767 438.634C386.678 438.623 386.589 438.611 386.504 438.605C386.121 438.556 385.739 438.508 385.36 438.46L385.45 438.69L385.73 439.404C385.63 439.165 385.529 438.931 385.428 438.692C385.398 438.62 385.365 438.549 385.335 438.477C388.745 433.897 391.291 428.281 392.76 422.101C394.228 415.921 394.577 409.356 393.776 402.957C392.938 396.603 390.998 390.606 388.114 385.455C388.494 385.3 388.878 385.174 389.267 385.062C390.363 387.082 391.324 389.229 392.14 391.477C395.066 399.495 395.999 408.57 394.802 417.359C393.689 425.313 390.916 432.673 386.808 438.576C387.168 438.541 387.531 438.502 387.887 438.458C394.618 437.689 401.336 435.738 407.441 431.742C412.66 428.409 417.191 423.397 420.635 417.148C424.332 410.272 425.962 402.003 426.242 393.597C426.457 384.542 425.753 375.49 424.149 366.691C422.594 357.72 420.23 349.039 417.111 340.842C417.041 340.656 417.027 340.441 417.071 340.242C417.116 340.042 417.215 339.873 417.35 339.77C417.462 339.669 417.599 339.631 417.731 339.664C417.796 339.688 417.856 339.73 417.907 339.789C417.958 339.848 417.999 339.922 418.026 340.004C418.411 341.017 418.788 342.03 419.152 343.055C422.177 351.589 424.405 360.598 425.784 369.873C427.122 378.82 427.836 388.18 427.136 397.292Z" fill="white"/>
<path d="M20.0262 139.852C19.7057 139.852 19.3881 139.771 19.0895 139.614C18.6067 139.364 18.1918 138.922 17.8998 138.346C17.6078 137.771 17.4526 137.089 17.4548 136.392V100.275C17.4538 99.053 17.0932 97.8809 16.452 97.0165C15.8108 96.152 14.9415 95.6658 14.0347 95.6644H8.54894C6.2824 95.6609 4.10941 94.4455 2.50672 92.2848C0.904032 90.1241 0.00252497 87.1946 -1.52588e-05 84.1389V11.5254C0.00252648 8.46976 0.904033 5.54021 2.50672 3.37951C4.10941 1.21881 6.2824 0.00342467 8.54894 0H202.049C204.315 0.00342873 206.488 1.21881 208.091 3.37951C209.694 5.54021 210.595 8.46976 210.598 11.5254V84.1389C210.595 87.1946 209.694 90.1241 208.091 92.2848C206.488 94.4455 204.315 95.6609 202.049 95.6643H52.6944C52.2204 95.6651 51.7515 95.7983 51.3176 96.0557C50.8836 96.3131 50.494 96.689 50.1732 97.1596L21.9097 138.728C21.6711 139.082 21.3803 139.364 21.056 139.558C20.7316 139.752 20.3809 139.852 20.0262 139.852ZM8.54894 1.53578C6.58442 1.53877 4.701 2.59221 3.31187 4.46499C1.92274 6.33777 1.14136 8.87694 1.13914 11.5254V84.1389C1.14136 86.7874 1.92275 89.3266 3.31187 91.1993C4.701 93.0721 6.58442 94.1256 8.54894 94.1286H14.0347C15.2435 94.1304 16.4024 94.7786 17.2572 95.931C18.1119 97.0833 18.5927 98.6458 18.594 100.275V136.392C18.594 136.779 18.6808 137.157 18.8429 137.477C19.0051 137.796 19.235 138.042 19.5026 138.182C19.7703 138.323 20.0631 138.351 20.3428 138.263C20.6225 138.175 20.876 137.975 21.07 137.69L49.3335 96.1218C49.7611 95.4944 50.2805 94.9933 50.859 94.6502C51.4375 94.3072 52.0625 94.1295 52.6945 94.1286H202.049C204.013 94.1256 205.897 93.0721 207.286 91.1993C208.675 89.3266 209.456 86.7874 209.459 84.1389V11.5254C209.456 8.87694 208.675 6.33777 207.286 4.46499C205.897 2.59221 204.013 1.53877 202.049 1.53578H8.54894Z" fill="#CCCCCC"/>
<path d="M20.9696 32.7044C25.1011 32.7044 28.4503 28.1891 28.4503 22.6192C28.4503 17.0492 25.1011 12.5339 20.9696 12.5339C16.8381 12.5339 13.4889 17.0492 13.4889 22.6192C13.4889 28.1891 16.8381 32.7044 20.9696 32.7044Z" fill="#CCCCCC"/>
<path d="M193.321 78.4241H17.2764C16.7521 78.4249 16.2328 78.2864 15.7482 78.0165C15.2636 77.7466 14.8232 77.3505 14.4522 76.8509C14.0812 76.3514 13.7869 75.7582 13.5861 75.1052C13.3853 74.4522 13.282 73.7522 13.282 73.0453C13.282 72.3384 13.3853 71.6384 13.5861 70.9854C13.7869 70.3324 14.0812 69.7392 14.4522 69.2396C14.8232 68.7401 15.2636 68.344 15.7482 68.0741C16.2328 67.8042 16.7521 67.6657 17.2764 67.6665H193.321C193.846 67.6657 194.365 67.8042 194.85 68.0741C195.334 68.344 195.775 68.7401 196.146 69.2396C196.517 69.7392 196.811 70.3324 197.012 70.9854C197.212 71.6384 197.316 72.3384 197.316 73.0453C197.316 73.7522 197.212 74.4522 197.012 75.1052C196.811 75.7582 196.517 76.3514 196.146 76.8509C195.775 77.3505 195.334 77.7466 194.85 78.0165C194.365 78.2864 193.846 78.4249 193.321 78.4241Z" fill="#CCCCCC"/>
<path d="M135.97 55.5642H17.2764C16.7521 55.5651 16.2328 55.4265 15.7482 55.1566C15.2636 54.8867 14.8232 54.4906 14.4522 53.9911C14.0812 53.4915 13.7869 52.8983 13.5861 52.2453C13.3853 51.5923 13.282 50.8923 13.282 50.1854C13.282 49.4785 13.3853 48.7786 13.5861 48.1256C13.7869 47.4726 14.0812 46.8793 14.4522 46.3798C14.8232 45.8802 15.2636 45.4842 15.7482 45.2142C16.2328 44.9443 16.7521 44.8058 17.2764 44.8066H135.97C136.494 44.8058 137.013 44.9443 137.498 45.2142C137.982 45.4842 138.423 45.8802 138.794 46.3798C139.165 46.8793 139.459 47.4726 139.66 48.1256C139.861 48.7786 139.964 49.4785 139.964 50.1854C139.964 50.8923 139.861 51.5923 139.66 52.2453C139.459 52.8983 139.165 53.4915 138.794 53.9911C138.423 54.4906 137.982 54.8867 137.498 55.1566C137.013 55.4265 136.494 55.5651 135.97 55.5642Z" fill="#CCCCCC"/>
<path d="M20.0262 396.017C19.7057 396.016 19.3881 395.936 19.0895 395.778C18.6068 395.528 18.1918 395.086 17.8999 394.511C17.6079 393.935 17.4527 393.253 17.4548 392.556V356.44C17.4538 355.217 17.0932 354.045 16.452 353.181C15.8108 352.317 14.9415 351.83 14.0347 351.829H8.54894C6.2824 351.825 4.10942 350.61 2.50673 348.449C0.904042 346.289 0.002531 343.359 -1.52588e-05 340.303V267.69C0.00252648 264.634 0.904034 261.705 2.50672 259.544C4.10941 257.383 6.2824 256.168 8.54894 256.165H202.049C204.315 256.168 206.488 257.383 208.091 259.544C209.694 261.705 210.595 264.634 210.598 267.69V340.303C210.595 343.359 209.694 346.289 208.091 348.449C206.488 350.61 204.315 351.825 202.049 351.829H52.6944C52.2204 351.83 51.7515 351.963 51.3176 352.22C50.8836 352.478 50.494 352.853 50.1732 353.324L21.9097 394.892C21.6711 395.246 21.3803 395.529 21.056 395.723C20.7316 395.916 20.3809 396.016 20.0262 396.017ZM8.54894 257.7C6.58442 257.703 4.701 258.757 3.31187 260.629C1.92274 262.502 1.14136 265.041 1.13914 267.69V340.303C1.14136 342.952 1.92275 345.491 3.31187 347.364C4.701 349.237 6.58442 350.29 8.54894 350.293H14.0347C15.2435 350.295 16.4024 350.943 17.2572 352.096C18.1119 353.248 18.5927 354.81 18.594 356.44V392.556C18.594 392.943 18.6808 393.322 18.8429 393.641C19.0051 393.961 19.235 394.207 19.5026 394.347C19.7703 394.487 20.0631 394.515 20.3428 394.428C20.6225 394.34 20.876 394.14 21.07 393.855L49.3335 352.286C49.7611 351.659 50.2805 351.158 50.859 350.815C51.4375 350.472 52.0625 350.294 52.6945 350.293H202.049C204.013 350.29 205.897 349.237 207.286 347.364C208.675 345.491 209.456 342.952 209.459 340.303V267.69C209.456 265.042 208.675 262.502 207.286 260.63C205.897 258.757 204.013 257.703 202.049 257.7L8.54894 257.7Z" fill="#CCCCCC"/>
<path d="M305.774 262.892C305.419 262.892 305.068 262.791 304.744 262.598C304.42 262.404 304.129 262.122 303.89 261.768L275.627 220.199C275.306 219.729 274.916 219.353 274.482 219.096C274.048 218.838 273.58 218.705 273.106 218.704H123.751C121.485 218.701 119.312 217.485 117.709 215.325C116.106 213.164 115.205 210.234 115.202 207.179V134.565C115.205 131.51 116.106 128.58 117.709 126.419C119.312 124.259 121.485 123.043 123.751 123.04H317.251C319.518 123.043 321.691 124.259 323.293 126.419C324.896 128.58 325.797 131.51 325.8 134.565V207.179C325.797 210.234 324.896 213.164 323.293 215.325C321.691 217.485 319.518 218.701 317.251 218.704H311.765C310.858 218.706 309.989 219.192 309.348 220.056C308.707 220.921 308.346 222.093 308.345 223.315V259.431C308.347 260.129 308.192 260.81 307.9 261.386C307.608 261.961 307.193 262.403 306.71 262.653C306.412 262.811 306.094 262.892 305.774 262.892ZM123.751 124.576C121.787 124.579 119.903 125.632 118.514 127.505C117.125 129.378 116.344 131.917 116.341 134.565V207.179C116.344 209.827 117.125 212.366 118.514 214.239C119.903 216.112 121.787 217.165 123.751 217.168H273.106C273.738 217.169 274.362 217.347 274.941 217.69C275.519 218.033 276.039 218.534 276.466 219.162L304.73 260.73C304.924 261.015 305.177 261.215 305.457 261.303C305.737 261.391 306.03 261.363 306.297 261.222C306.565 261.082 306.795 260.836 306.957 260.516C307.119 260.197 307.206 259.819 307.206 259.431V223.315C307.207 221.686 307.688 220.123 308.543 218.971C309.398 217.818 310.556 217.17 311.765 217.168H317.251C319.216 217.165 321.099 216.112 322.488 214.239C323.877 212.366 324.659 209.827 324.661 207.179V134.565C324.659 131.917 323.877 129.378 322.488 127.505C321.099 125.632 319.216 124.579 317.251 124.576L123.751 124.576Z" fill="#939393"/>
<path d="M20.9696 288.869C25.1011 288.869 28.4503 284.354 28.4503 278.784C28.4503 273.214 25.1011 268.698 20.9696 268.698C16.8381 268.698 13.4889 273.214 13.4889 278.784C13.4889 284.354 16.8381 288.869 20.9696 288.869Z" fill="#CCCCCC"/>
<path d="M193.321 334.589H17.2764C16.7521 334.589 16.2328 334.451 15.7482 334.181C15.2636 333.911 14.8232 333.515 14.4522 333.015C14.0812 332.516 13.7869 331.923 13.5861 331.27C13.3853 330.617 13.282 329.917 13.282 329.21C13.282 328.503 13.3853 327.803 13.5861 327.15C13.7869 326.497 14.0812 325.904 14.4522 325.404C14.8232 324.905 15.2636 324.509 15.7482 324.239C16.2328 323.969 16.7521 323.83 17.2764 323.831H193.321C194.38 323.831 195.394 324.398 196.142 325.406C196.891 326.415 197.311 327.783 197.311 329.21C197.311 330.636 196.891 332.005 196.142 333.013C195.394 334.022 194.38 334.589 193.321 334.589Z" fill="#CCCCCC"/>
<path d="M135.97 311.729H17.2764C16.7521 311.73 16.2328 311.591 15.7482 311.321C15.2636 311.051 14.8232 310.655 14.4522 310.156C14.0812 309.656 13.7869 309.063 13.5861 308.41C13.3853 307.757 13.282 307.057 13.282 306.35C13.282 305.643 13.3853 304.943 13.5861 304.29C13.7869 303.637 14.0812 303.044 14.4522 302.544C14.8232 302.045 15.2636 301.649 15.7482 301.379C16.2328 301.109 16.7521 300.97 17.2764 300.971H135.97C136.494 300.97 137.013 301.109 137.498 301.379C137.982 301.649 138.423 302.045 138.794 302.544C139.165 303.044 139.459 303.637 139.66 304.29C139.861 304.943 139.964 305.643 139.964 306.35C139.964 307.057 139.861 307.757 139.66 308.41C139.459 309.063 139.165 309.656 138.794 310.156C138.423 310.655 137.982 311.051 137.498 311.321C137.013 311.591 136.494 311.73 135.97 311.729Z" fill="#CCCCCC"/>
<path d="M136.172 155.072C140.303 155.072 143.652 150.557 143.652 144.987C143.652 139.417 140.303 134.901 136.172 134.901C132.04 134.901 128.691 139.417 128.691 144.987C128.691 150.557 132.04 155.072 136.172 155.072Z" fill="#C4C2DD"/>
<path d="M308.524 200.791H132.479C131.421 200.791 130.406 200.225 129.658 199.216C128.909 198.207 128.489 196.839 128.489 195.413C128.489 193.986 128.909 192.618 129.658 191.609C130.406 190.601 131.421 190.034 132.479 190.034H308.524C309.582 190.034 310.596 190.601 311.345 191.609C312.093 192.618 312.513 193.986 312.513 195.413C312.513 196.839 312.093 198.207 311.345 199.216C310.596 200.225 309.582 200.791 308.524 200.791Z" fill="#939393"/>
<path d="M251.172 177.932H132.479C131.954 177.933 131.435 177.794 130.95 177.524C130.466 177.254 130.025 176.858 129.654 176.359C129.283 175.859 128.989 175.266 128.788 174.613C128.588 173.96 128.484 173.26 128.484 172.553C128.484 171.846 128.588 171.146 128.788 170.493C128.989 169.84 129.283 169.247 129.654 168.747C130.025 168.248 130.466 167.852 130.95 167.582C131.435 167.312 131.954 167.173 132.479 167.174H251.172C251.696 167.173 252.215 167.312 252.7 167.582C253.185 167.852 253.625 168.248 253.996 168.747C254.367 169.247 254.661 169.84 254.862 170.493C255.063 171.146 255.166 171.846 255.166 172.553C255.166 173.26 255.063 173.96 254.862 174.613C254.661 175.266 254.367 175.859 253.996 176.359C253.625 176.858 253.185 177.254 252.7 177.524C252.215 177.794 251.696 177.933 251.172 177.932Z" fill="#939393"/>
<path d="M309.928 276.952L309.928 276.952L309.929 276.945C310.075 276 310.371 275.13 310.78 274.393C311.189 273.656 311.692 273.088 312.228 272.701C312.762 272.316 313.316 272.117 313.851 272.078C314.385 272.038 314.936 272.154 315.475 272.446L316.697 273.108L317.45 271.941L328.824 254.32L330.784 263.807L318.065 280.817L317.929 280.998L317.853 281.211C317.336 282.661 316.483 283.686 315.562 284.205C314.673 284.706 313.726 284.742 312.839 284.332C311.917 283.906 311.028 282.978 310.446 281.589C309.866 280.204 309.673 278.548 309.928 276.952Z" fill="#FFB8B8" stroke="white" stroke-width="3"/>
<path d="M394.272 160.719C394.272 165.638 392.791 170.032 390.469 173.162C388.148 176.292 385.06 178.08 381.782 178.08C378.504 178.08 375.416 176.292 373.095 173.162C370.774 170.032 369.293 165.638 369.293 160.719C369.293 155.801 370.774 151.407 373.095 148.277C375.416 145.147 378.504 143.359 381.782 143.359C385.06 143.359 388.148 145.147 390.469 148.277C392.791 151.407 394.272 155.801 394.272 160.719Z" fill="#FFB8B8" stroke="white" stroke-width="3"/>
<path d="M365.347 420.321L358.365 420.321L355.043 384.009L365.349 384.01L365.347 420.321Z" fill="#FFB8B8"/>
<path d="M367.129 429.447L344.613 429.446V429.062C344.613 427.51 344.84 425.974 345.28 424.541C345.72 423.107 346.366 421.805 347.18 420.707C347.993 419.61 348.96 418.74 350.023 418.146C351.086 417.553 352.226 417.247 353.377 417.247L367.129 417.248L367.129 429.447Z" fill="#F6F6F6"/>
<path d="M386.422 430.304L379.439 430.303L378.472 394.859L386.424 393.992L386.422 430.304Z" fill="#FFB8B8"/>
<path d="M387.203 428.23L387.203 438.429L366.7 438.428C366.751 437.185 366.958 435.963 367.31 434.817C367.721 433.481 368.317 432.283 369.057 431.286C369.797 430.288 370.659 429.519 371.585 429.002C372.508 428.486 373.481 428.229 374.451 428.229C374.451 428.229 374.451 428.229 374.451 428.229L387.203 428.23Z" fill="white" stroke="white" stroke-width="2"/>
<path d="M384.671 422.196L384.675 422.197C384.696 422.2 384.716 422.201 384.735 422.201L384.737 423.701M384.671 422.196L387.281 420.651M384.671 422.196L379.238 421.334C379.237 421.333 379.236 421.333 379.235 421.333C379.109 421.312 378.875 421.208 378.643 420.861C378.408 420.509 378.242 419.997 378.235 419.415C378.235 419.414 378.235 419.414 378.235 419.414L377.216 323.938L377.216 323.938C377.21 323.419 377.071 322.878 376.773 322.411C376.473 321.943 375.985 321.516 375.324 321.37C374.641 321.218 373.983 321.415 373.492 321.806C373.021 322.182 372.738 322.7 372.606 323.205C372.606 323.205 372.606 323.205 372.606 323.205L365.061 351.924L365.01 352.119L365.012 352.32L365.552 406.15L365.552 406.151C365.558 406.77 365.383 407.317 365.132 407.683C364.89 408.034 364.655 408.121 364.533 408.135L357.458 408.54L357.444 408.541L357.429 408.542C357.32 408.55 357.114 408.516 356.871 408.244C356.62 407.964 356.4 407.496 356.337 406.902L352.635 346.112L358.118 284.135M384.671 422.196L358.118 284.135M384.737 423.701L384.733 422.201C384.841 422.201 385.049 422.15 385.286 421.866L386.438 422.827L385.286 421.866C385.53 421.573 385.735 421.102 385.787 420.52L387.281 420.651M384.737 423.701C384.636 423.702 384.536 423.693 384.436 423.677L384.737 423.701ZM387.281 420.651L385.787 420.519L397.386 287.965M387.281 420.651L399.01 286.617L398.864 288.11L397.386 287.965M397.386 287.965L358.118 284.135M397.386 287.965L358.118 284.135" fill="#CACACA" stroke="white" stroke-width="3"/>
<path d="M356.937 288.133C356.558 287.86 356.236 287.462 356.002 286.976C355.767 286.491 355.628 285.933 355.596 285.355C355.596 285.355 359.396 253.499 360.788 252.902L357.742 218.836C357.377 214.681 357.631 210.469 358.49 206.449C359.349 202.428 360.795 198.679 362.743 195.423C364.619 192.263 366.951 189.648 369.597 187.737C372.243 185.826 375.149 184.657 378.14 184.302C378.565 184.25 378.989 184.21 379.41 184.183C383.015 183.923 386.613 184.84 389.899 186.856C393.185 188.872 396.061 191.928 398.282 195.764C400.587 199.633 402.165 204.195 402.88 209.063C403.596 213.93 403.43 218.959 402.394 223.72L400.686 231.737V287.759C400.684 288.306 400.587 288.844 400.403 289.331C400.219 289.819 399.953 290.241 399.625 290.564C394.305 295.828 388.293 297.69 382.45 297.69C371.394 297.69 360.944 291.025 356.937 288.133Z" fill="white"/>
<path d="M324.136 277.881L316.787 270.473C316.499 270.182 316.259 269.813 316.084 269.389C315.908 268.965 315.801 268.496 315.769 268.013C315.737 267.53 315.781 267.043 315.897 266.584C316.014 266.125 316.202 265.704 316.447 265.349L360.226 202.018C361.632 200.003 363.527 198.734 365.567 198.441C367.607 198.149 369.657 198.852 371.345 200.424C372.374 201.391 373.232 202.652 373.858 204.117C374.484 205.581 374.863 207.214 374.968 208.899C375.072 210.583 374.9 212.278 374.464 213.863C374.027 215.448 373.337 216.883 372.442 218.068L327.466 277.58C327.071 278.108 326.558 278.447 326.007 278.545C325.455 278.644 324.895 278.496 324.412 278.124C324.316 278.051 324.224 277.97 324.136 277.881Z" fill="#F6F6F6"/>
<path d="M381.812 269.945L381.812 269.945L381.814 269.938C382.085 269.058 382.487 268.299 382.972 267.703C383.455 267.107 383.998 266.701 384.542 266.471L383.977 265.133L384.542 266.471C385.081 266.244 385.63 266.184 386.165 266.281C386.704 266.379 387.258 266.64 387.781 267.093L388.868 268.033L389.854 266.987L403.477 252.54L404.1 262.577L389.307 276.025L389.121 276.194L389 276.414C388.311 277.671 387.376 278.414 386.463 278.674C385.58 278.925 384.628 278.753 383.746 278.075C382.84 277.379 382.071 276.184 381.684 274.643C381.299 273.108 381.347 271.428 381.812 269.945Z" fill="#FFB8B8" stroke="white" stroke-width="3"/>
<path d="M394.7 276.119C394.276 275.942 393.894 275.618 393.592 275.18C393.29 274.743 393.078 274.206 392.978 273.624L391.362 264.474C391.243 263.824 391.269 263.142 391.436 262.512C391.604 261.882 391.904 261.333 392.302 260.932L403.174 245.079L387.181 211.833C385.971 209.824 385.289 207.33 385.241 204.742C385.193 202.154 385.783 199.618 386.918 197.53C387.823 195.867 389.038 194.555 390.44 193.728C391.842 192.902 393.381 192.589 394.901 192.822C396.422 193.056 397.869 193.827 399.098 195.057C400.326 196.288 401.291 197.934 401.895 199.829L416.763 238.846C418.242 242.723 418.61 247.197 417.799 251.416C416.988 255.635 415.054 259.305 412.366 261.725L397.171 275.409C396.706 275.971 396.104 276.282 395.479 276.282C395.215 276.282 394.952 276.227 394.7 276.119Z" fill="#F6F6F6"/>
<path d="M392.148 177.58C391.818 177.847 391.448 178.008 391.065 178.05C390.681 178.093 390.296 178.016 389.939 177.825C389.581 177.635 389.261 177.336 389.002 176.952C388.744 176.568 388.555 176.109 388.45 175.611L388.441 175.563C388.156 173.994 388.381 172.352 388.455 170.739C388.528 169.127 388.404 167.357 387.585 166.178C386.058 163.979 383.362 165.17 381.165 164.627C379.878 164.249 378.737 163.252 377.955 161.822C377.174 160.393 376.806 158.628 376.92 156.858C376.95 156.523 376.998 156.187 377.051 155.852C377.185 155.001 377.171 154.121 377.01 153.279C376.849 152.437 376.546 151.657 376.123 151C375.701 150.343 375.172 149.827 374.577 149.493C373.982 149.158 373.337 149.014 372.694 149.071C370.476 149.258 368.085 150.182 366.241 147.98C365.565 147.111 365.093 145.993 364.885 144.765C364.677 143.537 364.742 142.254 365.072 141.075C366.104 136.99 369.057 134.833 371.983 133.639C375.603 132.2 379.415 131.867 383.141 132.664C386.868 133.461 390.417 135.368 393.528 138.245C395.387 139.991 397.124 142.189 397.925 145.046C398.725 147.903 398.359 151.517 396.587 153.419C397.974 155.378 398.955 157.793 399.431 160.424C399.908 163.055 399.863 165.808 399.301 168.409C398.438 172.233 394.258 175.923 392.148 177.58Z" fill="#FCFCFC"/>
</g>
<defs>
<clipPath id="clip0_42_1763">
<rect width="480" height="440" fill="white"/>
</clipPath>
</defs>
</svg>
