<svg width="480" height="440" viewBox="0 0 480 440" fill="none" xmlns="http://www.w3.org/2000/svg">
<g clip-path="url(#clip0_40_995)">
<path d="M274.262 355.296C275.119 354.426 276.092 353.994 277.054 353.994C278.34 353.994 279.642 354.771 280.642 356.291C281.642 357.811 282.219 359.902 282.219 362.106C282.219 363.747 281.899 365.343 281.307 366.689C280.714 368.039 279.886 369.053 278.956 369.64C278.034 370.22 277.044 370.362 276.093 370.074C275.133 369.784 274.21 369.053 273.465 367.921C272.721 366.79 272.203 365.33 271.993 363.721C271.783 362.114 271.891 360.449 272.302 358.942C272.713 357.432 273.403 356.169 274.262 355.296ZM274.76 366.864C275.409 367.522 276.206 367.906 277.054 367.906C278.195 367.906 279.22 367.218 279.937 366.128C280.654 365.039 281.04 363.591 281.04 362.106C281.04 360.996 280.824 359.901 280.411 358.96C279.998 358.021 279.396 357.253 278.654 356.786C277.904 356.314 277.054 356.18 276.229 356.429C275.414 356.676 274.706 357.27 274.171 358.084C273.635 358.898 273.281 359.917 273.138 361.007C272.996 362.099 273.068 363.231 273.35 364.266C273.632 365.298 274.115 366.208 274.76 366.864Z" fill="#E4E4E4" stroke="black"/>
<path d="M255.763 347.369H276.554V379.653C276.554 380.718 276.274 381.715 275.805 382.429C275.335 383.143 274.752 383.468 274.215 383.468H258.102C257.565 383.468 256.982 383.143 256.512 382.429C256.042 381.715 255.763 380.718 255.763 379.653V347.369Z" fill="#E4E4E4" stroke="black"/>
<path d="M327.968 384.718H0.442007C0.320543 384.698 0.208274 384.61 0.126718 384.472C0.0451623 384.334 6.10352e-05 384.154 6.10352e-05 383.969C6.10352e-05 383.783 0.0451623 383.604 0.126718 383.465C0.208274 383.327 0.320543 383.239 0.442007 383.219H327.968C328.089 383.239 328.202 383.327 328.283 383.465C328.365 383.604 328.41 383.783 328.41 383.969C328.41 384.154 328.365 384.334 328.283 384.472C328.202 384.61 328.089 384.698 327.968 384.718Z" fill="#CACACA"/>
<path d="M44.0868 370.559L42.0612 385.785L79.7295 404.909L82.7196 382.437L44.0868 370.559Z" fill="#FFB6B6"/>
<path d="M47.8739 367.681L43.8842 397.665L43.8841 397.667C43.2094 402.734 41.2383 407.187 38.4041 410.045C35.5699 412.904 32.1048 413.934 28.7711 412.909L28.3626 412.783L34.8949 363.691L47.8739 367.681Z" fill="#FCFCFC"/>
<path d="M86.773 160.84C100.899 160.84 112.35 143.433 112.35 121.96C112.35 100.488 100.899 83.0807 86.773 83.0807C72.6473 83.0807 61.1961 100.488 61.1961 121.96C61.1961 143.433 72.6473 160.84 86.773 160.84Z" fill="#FEB8B8"/>
<path d="M110.662 88.4182C106.838 78.9791 100.852 72.0238 93.8571 68.8911L90.7171 72.3742V67.8515C89.0371 67.4606 87.3368 67.3101 85.6383 67.4018L82.9293 71.1278V67.7113C78.9184 68.469 75.0542 70.4817 71.5805 73.6226C68.1067 76.7635 65.0988 80.9644 62.7463 85.9604C56.8633 98.8526 55.8702 116.788 61.6566 129.784C63.2448 122.363 65.1728 115.401 66.7615 107.981C68.0099 108.24 69.2753 108.249 70.5253 108.009L72.4577 101.154L72.9976 107.719C78.9876 106.926 87.872 105.184 93.5504 103.588L92.9981 98.552L96.3018 102.737C98.0414 102.128 99.0744 101.576 98.9891 101.154C103.212 111.503 108.381 118.114 112.604 128.463C114.208 113.87 116.054 101.735 110.662 88.4182Z" fill="#FCFCFC"/>
<path d="M95.0948 376.38C131.466 376.38 160.951 363.843 160.951 348.377C160.951 332.912 131.466 320.375 95.0948 320.375C58.7232 320.375 29.2382 332.912 29.2382 348.377C29.2382 363.843 58.7232 376.38 95.0948 376.38Z" fill="#CACACA"/>
<path d="M127.083 188.802L127.02 188.756C126.447 188.337 122.715 185.131 118.955 181.863C115.167 178.57 111.189 175.074 110.076 174.015C109.663 173.623 109.247 173.208 108.822 172.784C108.182 172.146 107.523 171.488 106.827 170.86C106.273 170.36 105.777 169.956 105.361 169.685C104.976 169.433 104.809 169.396 104.81 169.39C104.81 169.39 104.811 169.39 104.812 169.39L104.788 169.389C104.745 169.387 104.612 169.395 104.255 169.442C104.149 169.456 104.009 169.476 103.846 169.498C103.579 169.536 103.254 169.581 102.93 169.623C101.8 169.769 100.206 169.938 97.9561 170.024C93.533 170.192 86.6073 170.037 75.7136 168.763C72.2047 170.941 68.7973 173.507 65.5189 176.441L64.4605 177.389L64.3905 177.319C63.7577 177.822 62.8682 178.534 61.8015 179.39C61.4149 179.701 61.0054 180.029 60.5767 180.374C58.5848 181.973 56.1808 183.903 53.7601 185.833C50.8198 188.178 47.8471 190.529 45.5526 192.293C44.4073 193.174 43.4191 193.917 42.684 194.442C42.3194 194.703 41.9975 194.924 41.7413 195.084C41.6162 195.162 41.4792 195.243 41.3459 195.309C41.2803 195.341 41.1873 195.384 41.079 195.421C41.0083 195.446 40.7634 195.529 40.4503 195.511L40.4401 195.511L40.4401 195.511C40.1614 195.493 39.7511 195.61 39.2286 196.083C38.7105 196.552 38.2011 197.273 37.7911 198.149L127.083 188.802ZM127.083 188.802L127.151 188.842M127.083 188.802L127.151 188.842M127.151 188.842C127.913 189.286 128.731 189.586 129.582 189.716C130.794 190.074 132.013 191.102 133.173 192.776C134.342 194.463 135.333 196.64 136.115 198.935C138.498 205.955 139.396 213.928 140.274 221.957L140.262 222.1L140.188 222.947C140.124 223.69 140.03 224.78 139.911 226.17C139.672 228.951 139.334 232.932 138.935 237.735C138.136 247.341 137.091 260.236 136.109 273.392C135.126 286.546 134.205 299.969 133.654 310.627C133.378 315.954 133.194 320.603 133.142 324.188C133.116 325.979 133.122 327.518 133.168 328.75C133.18 329.087 133.196 329.41 133.215 329.714L43.904 325.825C43.6979 323.656 43.6691 320.268 43.8176 316.813C43.9979 312.614 44.4264 308.662 44.9878 306.905L44.9899 306.899L44.9921 306.892C45.2443 306.075 45.5456 305.285 45.8689 304.448L45.9277 304.295C46.2287 303.517 46.547 302.693 46.827 301.832C48.9528 295.349 48.6634 287.803 48.4003 280.943C48.3932 280.758 48.3862 280.574 48.3792 280.391C48.1085 273.28 48.0625 266.045 50.3686 260.372C50.747 259.602 50.996 258.741 51.1139 257.852L51.1273 257.751M127.151 188.842L51.1273 257.751M51.1273 257.751L51.1269 257.649M51.1273 257.751L51.1269 257.649M51.1269 257.649C51.1232 256.77 50.977 255.892 50.6885 255.088C48.1792 246.592 45.7758 238.09 43.3698 229.578L43.3646 229.56C40.9899 221.159 38.6125 212.748 36.1319 204.341M51.1269 257.649L36.1319 204.341M36.1319 204.341C36.5792 202.004 36.9894 199.864 37.791 198.15L36.1319 204.341Z" fill="#CACACA" stroke="white" stroke-width="3"/>
<path d="M26.6086 256.312C26.4244 258.338 26.4058 260.391 26.5534 262.424L27.8768 291.316C28.0011 294.039 28.1234 296.755 28.2915 299.471C28.609 304.743 29.0834 309.972 29.6721 315.194C29.6854 315.936 29.8917 316.639 30.2457 317.15C30.5996 317.66 31.0724 317.936 31.5602 317.918C37.386 319.791 43.4051 319.716 49.3507 319.206C58.4235 318.436 81.635 316.98 83.0531 314.18C84.4712 311.379 83.6448 306.85 81.7958 304.585C79.9467 302.321 49.3157 296.801 49.3157 296.801C49.615 293.195 50.5178 289.8 51.3743 286.377C52.9128 280.306 54.3496 274.035 54.3772 267.531C54.4048 261.027 52.7929 254.189 49.2881 250.463C46.405 247.404 42.6931 246.837 39.1798 246.963C36.6237 247.075 32.2071 246.144 29.8723 247.663C28.0248 248.9 26.9538 253.562 26.6086 256.312Z" fill="#FBBEBE"/>
<path d="M141.758 323.11L142.26 323.173L142.698 322.919C143.664 322.359 144.777 322.505 146.51 322.86C151.834 323.965 156.926 325.051 161.557 328.085L161.561 328.087C163.71 329.486 165.695 331.312 167.102 333.973C168.382 336.434 169.152 339.497 169.924 342.726L169.924 342.728L171.693 350.093L171.698 350.114L171.704 350.136C172.431 352.809 172.933 355.616 173.199 358.489C173.714 366.826 169.943 374.69 165.28 378.971C160.736 383.143 155.413 384.73 149.827 386.395C149.647 386.449 149.466 386.502 149.286 386.556C143.539 388.273 137.773 390.17 132.058 392.179L132.031 392.189L132.005 392.199C129.434 393.213 126.829 393.993 124.204 394.535C122.136 394.889 120.086 394.926 117.914 394.967C117.024 394.983 116.114 395 115.174 395.039C112.025 395.17 108.712 395.561 105.516 397.253L105.513 397.255C104.605 397.738 103.686 398.318 102.823 398.864C102.536 399.046 102.255 399.223 101.983 399.392C100.852 400.093 99.811 400.683 98.7849 401.05C97.2821 401.529 95.7654 401.879 94.2419 402.1L94.2209 402.103L94.2001 402.106L83.2348 404.01L83.2137 404.014L83.1926 404.018C81.0529 404.453 78.9004 404.705 76.7449 404.772C72.2781 404.767 67.828 403.156 63.1375 401.418L63.0715 401.393L63.0035 401.375C62.8219 401.326 62.5972 401.21 62.3559 400.976C62.2243 400.798 62.0798 400.473 61.9636 399.933C61.8417 399.366 61.7804 398.714 61.7274 398.008L61.7274 398.008C61.2584 391.759 60.8481 385.503 60.4966 379.241C60.3823 377.132 60.3468 375.298 60.9144 373.962C61.5396 372.545 62.7142 372.04 64.2555 371.658L64.2568 371.657C71.0753 369.962 77.9782 369.234 84.8785 369.481L85.7217 369.512L86.1854 368.807C87.2891 367.129 88.749 366.257 90.4999 365.519C91.0499 365.287 91.5631 365.094 92.1039 364.89C92.488 364.745 92.886 364.595 93.321 364.422C94.3021 364.032 95.3341 363.576 96.3255 362.95L96.3549 362.932L96.3834 362.912C97.7328 361.97 99.0338 360.895 100.278 359.696C106.333 354.333 113.038 351.131 119.9 350.24C121.465 350.16 123.013 349.82 124.512 349.231L124.558 349.212L124.604 349.191C125.425 348.803 126.187 348.269 126.862 347.762C127.146 347.549 127.403 347.349 127.65 347.158C128.037 346.857 128.398 346.578 128.788 346.301C130.072 345.392 130.843 345.155 131.495 345.355L133.023 345.824L133.394 344.269C133.474 343.932 133.549 343.572 133.62 343.229C133.631 343.176 133.642 343.123 133.653 343.071C133.736 342.67 133.817 342.291 133.909 341.932C134.105 341.167 134.302 340.706 134.486 340.476L134.495 340.466L134.503 340.455C134.616 340.309 134.74 340.184 134.945 339.979C134.967 339.957 134.989 339.935 135.013 339.911C135.236 339.687 135.542 339.376 135.812 338.97L135.816 338.963L135.821 338.956C136.38 338.096 136.633 337.081 136.746 336.146C136.86 335.196 136.844 334.214 136.783 333.337C136.754 332.928 136.721 332.541 136.689 332.171C136.579 330.891 136.486 329.817 136.67 328.755C136.769 328.243 136.912 327.763 137.091 327.329L137.1 327.309L137.107 327.288C137.745 325.611 138.492 324.497 139.265 323.848C139.993 323.236 140.793 322.988 141.758 323.11Z" fill="#CACACA" stroke="white" stroke-width="3"/>
<path d="M34.3239 204.935C33.8753 205.649 33.5275 206.495 33.3017 207.421C29.5791 220.174 27.3803 233.833 26.8083 247.758C26.8183 248.437 26.7154 249.109 26.509 249.711C26.3054 250.112 26.0789 250.485 25.832 250.824C25.6167 251.212 25.4538 251.661 25.3526 252.145C25.2513 252.628 25.2138 253.137 25.242 253.643C25.2703 254.149 25.3637 254.641 25.5171 255.092C25.6705 255.543 25.8808 255.943 26.136 256.27C26.1779 256.324 26.2208 256.376 26.2649 256.425C27.0247 254.251 28.8437 253.541 30.4606 253.352C38.202 252.421 45.764 257.896 53.5286 257.483C52.9808 254.605 52.1928 251.84 51.7461 248.928C49.7703 235.998 54.6982 221.92 51.6771 209.465C51.0735 206.973 50.0652 204.523 48.4764 203.431C47.8186 203.028 47.1302 202.751 46.4272 202.606C44.4652 202.068 40.5595 199.764 38.6625 200.688C37.9624 201.032 37.6862 202.032 37.1059 202.637C36.2242 203.493 35.0546 203.808 34.3239 204.935Z" fill="#CACACA"/>
<path d="M141.837 247.663C139.502 246.144 135.085 247.075 132.529 246.963C129.016 246.837 125.304 247.404 122.421 250.463C118.916 254.189 117.304 261.027 117.332 267.531C117.36 274.035 118.796 280.306 120.335 286.377C121.191 289.8 122.094 293.195 122.393 296.801C122.393 296.801 91.7624 302.321 89.9134 304.585C88.0643 306.85 87.2379 311.379 88.656 314.18C90.0741 316.98 134.323 319.791 140.149 317.918C140.637 317.936 141.109 317.66 141.463 317.15C141.817 316.639 142.024 315.936 142.037 315.194C142.626 309.972 143.1 304.743 143.418 299.471C143.586 296.755 143.708 294.039 143.832 291.316L145.156 262.424C145.303 260.391 145.285 258.338 145.101 256.312C144.755 253.562 143.684 248.9 141.837 247.663Z" fill="#FBBEBE"/>
<path d="M134.603 202.637C134.023 202.032 133.747 201.032 133.047 200.688C131.15 199.764 127.244 202.068 125.282 202.606C124.579 202.751 123.891 203.028 123.233 203.431C121.644 204.523 120.636 206.973 120.032 209.465C117.011 221.92 121.939 235.998 119.963 248.928C119.516 251.84 118.728 254.605 118.18 257.483C125.945 257.896 133.507 252.421 141.249 253.352C142.865 253.541 144.684 254.251 145.444 256.425C145.488 256.376 145.531 256.324 145.573 256.27C145.828 255.943 146.039 255.543 146.192 255.092C146.345 254.641 146.439 254.149 146.467 253.643C146.495 253.137 146.458 252.628 146.356 252.145C146.255 251.661 146.092 251.212 145.877 250.824C145.63 250.485 145.404 250.112 145.2 249.711C144.994 249.109 144.891 248.437 144.901 247.758C144.329 233.833 142.13 220.174 138.407 207.421C138.182 206.495 137.834 205.649 137.385 204.935C136.654 203.808 135.485 203.493 134.603 202.637Z" fill="#CACACA"/>
<path d="M147.552 392.294L146.206 407.692L106.494 407.126L108.481 384.4L147.552 392.294Z" fill="#FFB6B6"/>
<path d="M157.715 390.35L153.374 440L152.961 439.917C149.589 439.235 146.534 436.546 144.466 432.44C142.399 428.335 141.489 423.149 141.937 418.024L141.937 418.022L144.589 387.698L157.715 390.35Z" fill="#FCFCFC"/>
<path d="M53.3368 328.664C53.356 328.883 53.4311 329.097 53.5277 329.274L52.6518 329.215C52.6652 329.159 52.6854 329.093 52.7159 329.022C52.7567 328.927 52.8207 328.814 52.9129 328.702L53.3368 328.664ZM53.3368 328.664C53.3281 328.567 53.3187 328.471 53.3086 328.374C53.1412 328.466 53.0114 328.583 52.9133 328.702L53.3368 328.664ZM52.5994 330.543C52.2069 330.11 51.9025 329.471 51.8427 328.798C51.3731 323.545 48.6303 319.309 45.6038 317.316C42.6059 315.342 39.122 315.182 35.5443 315.699L35.5434 315.699C30.2899 316.455 24.6105 319.453 22.7453 326.7L22.7442 326.704C22.7035 326.86 22.636 327.113 22.5467 327.449C22.0879 329.171 21.0516 333.06 20.0948 337.121C19.5233 339.546 18.9856 342.011 18.6192 344.091C18.2391 346.25 18.0863 347.776 18.1672 348.459C19.3294 358.135 23.6853 366.409 28.945 372.123C34.208 377.842 40.3764 381.285 46.7095 384.466C63.4247 392.846 80.5663 399.068 97.9529 403.071C98.1433 403.115 98.335 403.159 98.5279 403.203C101.155 403.802 104 404.45 106.716 405.836M52.5994 330.543L106.035 407.172M52.5994 330.543C52.6751 331.676 53.0103 332.785 53.44 333.744C54.0376 335.077 54.9042 336.309 55.8177 337.086C56.3541 337.542 56.9729 337.967 57.5041 338.332C57.7244 338.484 57.9296 338.625 58.1077 338.754C58.7781 339.238 59.3268 339.711 59.7752 340.355C59.9588 340.621 60.1236 340.906 60.3228 341.252C60.3682 341.331 60.4153 341.412 60.4648 341.498C60.7117 341.923 61.0176 342.434 61.3994 342.891L61.4361 342.935L61.476 342.976C62.399 343.923 63.4791 344.631 64.6695 345.002C76.2428 349.776 87.2709 357.35 98.405 365.007C98.4052 365.007 98.4053 365.007 98.4054 365.007L108.09 371.672L108.093 371.674C108.22 371.761 108.388 371.904 108.659 372.14L108.683 372.161C108.919 372.366 109.224 372.632 109.54 372.86C109.852 373.085 110.306 373.373 110.846 373.498C111.461 373.641 112.196 373.566 112.824 373.043C114.4 371.769 116.097 371.354 117.706 371.696C119.337 372.043 120.989 373.192 122.361 375.183C122.672 375.719 123.036 376.209 123.451 376.635L123.555 376.741L123.678 376.826C124.722 377.541 125.973 377.77 127.189 377.384C127.654 377.29 128.12 377.182 128.561 377.08C128.648 377.06 128.733 377.04 128.818 377.021C129.375 376.892 129.898 376.776 130.41 376.69C131.435 376.518 132.324 376.484 133.152 376.688C134.665 377.06 136.5 378.859 136.684 381.684C136.82 383.81 136.053 385.707 135.167 387.897C135.014 388.276 134.858 388.663 134.702 389.061L134.7 389.066C132.088 395.804 131.228 403.737 132.259 411.343L132.26 411.351C132.399 412.337 132.528 413.303 132.523 414.175C132.517 415.072 132.364 415.618 132.156 415.913C132.092 416.002 132.042 416.037 132.011 416.054C131.977 416.074 131.92 416.097 131.821 416.111C131.586 416.143 131.266 416.109 130.772 416.013C124.853 414.824 119.167 413.657 113.902 410.444M52.5994 330.543L113.118 411.723M106.716 405.836L106.035 407.172M106.716 405.836C106.716 405.836 106.716 405.836 106.716 405.836L106.035 407.172M106.716 405.836C108.024 406.502 109.268 407.323 110.444 408.128C110.706 408.307 110.964 408.485 111.218 408.661C112.131 409.291 113.006 409.895 113.902 410.444M106.035 407.172C107.511 407.924 108.929 408.903 110.347 409.882C111.265 410.516 112.184 411.15 113.118 411.723M113.902 410.444C113.901 410.443 113.9 410.443 113.899 410.442L113.118 411.723M113.902 410.444L113.118 411.723" fill="#CACACA" stroke="white" stroke-width="3"/>
<path d="M79.1979 319.297C83.0104 319.297 86.1011 314.599 86.1011 308.804C86.1011 303.008 83.0104 298.31 79.1979 298.31C75.3853 298.31 72.2947 303.008 72.2947 308.804C72.2947 314.599 75.3853 319.297 79.1979 319.297Z" fill="#FBBEBE"/>
<path d="M94.4835 319.297C98.2961 319.297 101.387 314.599 101.387 308.804C101.387 303.008 98.2961 298.31 94.4835 298.31C90.671 298.31 87.5803 303.008 87.5803 308.804C87.5803 314.599 90.671 319.297 94.4835 319.297Z" fill="#FBBEBE"/>
<path d="M137.093 330.95H42.2583C41.7982 330.949 41.1524 330.668 40.5571 329.764C39.9624 328.86 39.5805 327.545 39.5792 326.101V238.64C39.5805 237.196 39.9624 235.881 40.5571 234.977C41.1519 234.073 41.7972 233.792 42.2573 233.791H137.094C137.554 233.792 138.199 234.073 138.794 234.977C139.389 235.881 139.771 237.196 139.772 238.641V326.1C139.771 327.545 139.389 328.86 138.794 329.764C138.199 330.668 137.553 330.949 137.093 330.95Z" fill="#939393" stroke="white" stroke-width="3"/>
<path d="M89.4454 286.571C90.9715 286.571 92.2087 284.69 92.2087 282.37C92.2087 280.051 90.9715 278.17 89.4454 278.17C87.9193 278.17 86.6822 280.051 86.6822 282.37C86.6822 284.69 87.9193 286.571 89.4454 286.571Z" fill="white"/>
<path d="M428.013 157.743H304.794C304.141 157.742 303.514 157.346 303.052 156.644C302.59 155.941 302.33 154.989 302.329 153.995V118.692H303.315V153.995C303.316 154.591 303.472 155.163 303.749 155.584C304.026 156.006 304.402 156.243 304.794 156.244H428.013C428.405 156.243 428.781 156.006 429.059 155.584C429.336 155.163 429.492 154.591 429.492 153.995V118.445H430.478V153.995C430.478 154.989 430.218 155.941 429.755 156.644C429.293 157.346 428.667 157.742 428.013 157.743Z" fill="#C4C2DD"/>
<path d="M472.68 117.942H183.13V119.441H472.68V117.942Z" fill="#E6E6E6"/>
<path d="M190.634 118.575C190.634 121.968 189.727 124.994 188.314 127.142C186.895 129.298 185.049 130.468 183.151 130.468C181.254 130.468 179.408 129.298 177.989 127.142C176.576 124.994 175.669 121.968 175.669 118.575C175.669 115.181 176.576 112.155 177.989 110.007C179.408 107.851 181.254 106.681 183.151 106.681C185.049 106.681 186.895 107.851 188.314 110.007C189.727 112.155 190.634 115.181 190.634 118.575Z" fill="#E6E6E6" stroke="#E6E6E6" stroke-width="2"/>
<path d="M269.345 131.468C274.03 131.468 277.827 125.695 277.827 118.575C277.827 111.454 274.03 105.681 269.345 105.681C264.661 105.681 260.863 111.454 260.863 118.575C260.863 125.695 264.661 131.468 269.345 131.468Z" fill="#E6E6E6"/>
<path d="M327.841 169.366C332.526 169.366 336.323 163.593 336.323 156.472C336.323 149.351 332.526 143.578 327.841 143.578C323.157 143.578 319.359 149.351 319.359 156.472C319.359 163.593 323.157 169.366 327.841 169.366Z" fill="#C4C2DD"/>
<path d="M372.311 169.366C376.996 169.366 380.793 163.593 380.793 156.472C380.793 149.351 376.996 143.578 372.311 143.578C367.627 143.578 363.829 149.351 363.829 156.472C363.829 163.593 367.627 169.366 372.311 169.366Z" fill="#CCCCCC"/>
<path d="M350.762 131.468C355.446 131.468 359.244 125.695 359.244 118.575C359.244 111.454 355.446 105.681 350.762 105.681C346.077 105.681 342.28 111.454 342.28 118.575C342.28 125.695 346.077 131.468 350.762 131.468Z" fill="#E6E6E6"/>
<path d="M471.518 131.468C476.202 131.468 480 125.695 480 118.575C480 111.454 476.202 105.681 471.518 105.681C466.833 105.681 463.036 111.454 463.036 118.575C463.036 125.695 466.833 131.468 471.518 131.468Z" fill="#939393"/>
<path d="M429.985 131.468C434.67 131.468 438.467 125.695 438.467 118.575C438.467 111.454 434.67 105.681 429.985 105.681C425.301 105.681 421.503 111.454 421.503 118.575C421.503 125.695 425.301 131.468 429.985 131.468Z" fill="#939393"/>
<path d="M335.518 0H319.786V16.4823H335.518V0Z" fill="#C4C2DD"/>
<path d="M191.08 0H175.347V16.4823H191.08V0Z" fill="black"/>
<path d="M244.369 0H228.636V16.4823H244.369V0Z" fill="#CCCCCC"/>
<path d="M209.454 119.441C209.323 119.441 209.198 119.362 209.105 119.222C209.013 119.081 208.961 118.89 208.961 118.692V81.6925C208.962 80.6989 209.222 79.7463 209.684 79.0437C210.146 78.3411 210.773 77.9459 211.426 77.9448H235.427C235.558 77.9448 235.683 78.0237 235.776 78.1643C235.868 78.3049 235.92 78.4955 235.92 78.6943C235.92 78.8931 235.868 79.0838 235.776 79.2243C235.683 79.3649 235.558 79.4438 235.427 79.4438H211.426C211.034 79.4445 210.658 79.6816 210.381 80.1032C210.104 80.5247 209.948 81.0963 209.947 81.6925V118.692C209.947 118.89 209.895 119.081 209.803 119.222C209.71 119.362 209.585 119.441 209.454 119.441Z" fill="#C4C2DD"/>
<path d="M236.555 91.3077C241.24 91.3077 245.037 85.535 245.037 78.4141C245.037 71.2931 241.24 65.5204 236.555 65.5204C231.871 65.5204 228.073 71.2931 228.073 78.4141C228.073 85.535 231.871 91.3077 236.555 91.3077Z" fill="#C4C2DD"/>
<path d="M399.292 118.692H398.306V81.6925C398.307 80.6989 398.567 79.7463 399.029 79.0437C399.491 78.3411 400.118 77.9459 400.771 77.9448H424.772V79.4438H400.771C400.379 79.4445 400.003 79.6816 399.726 80.1032C399.448 80.5247 399.292 81.0963 399.292 81.6925V118.692Z" fill="#CCCCCC"/>
<path d="M425.9 91.3077C430.585 91.3077 434.382 85.535 434.382 78.4141C434.382 71.2931 430.585 65.5204 425.9 65.5204C421.216 65.5204 417.418 71.2931 417.418 78.4141C417.418 85.535 421.216 91.3077 425.9 91.3077Z" fill="#939393"/>
</g>
<defs>
<clipPath id="clip0_40_995">
<rect width="480" height="440" fill="white"/>
</clipPath>
</defs>
</svg>
